<svg version="1.1" xmlns="http://www.w3.org/2000/svg" xmlns:xlink="http://www.w3.org/1999/xlink" x="0px" y="0px" width="500px" height="500px" viewBox="0 0 500 500" enable-background="new 0 0 500 500" xml:space="preserve">
	<path id="arrow-right--circle" fill="#2418B7" d="M211.6,170.5l76.8,76.9l-76.8,76.9c-3.3,3.3-3.3,8.7,0,12c1.7,1.7,3.8,2.5,6,2.5
		c2.2,0,4.3-0.8,6-2.5l82.8-82.9c3.3-3.3,3.3-8.7,0-12l-82.8-82.9c-3.3-3.3-8.7-3.3-12,0C208.3,161.8,208.3,167.2,211.6,170.5z
		 M-0.5,250.5c0-137.9,112.2-250,250-250c137.9,0,250,112.1,250,250c0,137.8-112.1,250-250,250C111.7,500.5-0.5,388.3-0.5,250.5z
		 M482.5,250.5c0-128.5-104.5-233-233-233c-128.5,0-233,104.6-233,233c0,128.5,104.6,233,233,233C378,483.5,482.5,379,482.5,250.5z"/>
</svg>
