<svg xmlns="http://www.w3.org/2000/svg" xmlns:xlink="http://www.w3.org/1999/xlink" version="1.0" id="Layer_1" x="0px" y="0px" width="60px" height="60px" viewBox="0 0 60 60" enable-background="new 0 0 60 60" xml:space="preserve">
  <path fill="#232326" d="M30-0.007C13.455-0.007-0.007 13.454-0.007 30c0 16.544 13.462 30.007 30.007 30.007 16.546 0 30.007-13.463 30.007-30.007C60.007 13.454 46.546-0.007 30-0.007zM30 57.972C14.577 57.972 2.028 45.424 2.028 30 2.028 14.577 14.577 2.028 30 2.028c15.424 0 27.972 12.549 27.972 27.972C57.972 45.424 45.424 57.972 30 57.972zM39.661 25.513l-9.229 9.22 -9.229-9.22c-0.397-0.397-1.044-0.397-1.44 0 -0.198 0.198-0.298 0.458-0.298 0.72 0 0.261 0.1 0.521 0.3 0.721l9.948 9.937c0.397 0.398 1.042 0.398 1.439 0l9.949-9.937c0.397-0.397 0.397-1.043 0-1.44C40.705 25.116 40.059 25.116 39.661 25.513z"/>
</svg>