<svg version="1.1" xmlns="http://www.w3.org/2000/svg" xmlns:xlink="http://www.w3.org/1999/xlink" x="0px" y="0px" width="500px" height="500px" viewBox="0 0 500 500" enable-background="new 0 0 500 500" xml:space="preserve">
	<path id="arrow--circle" fill="#2418B7" d="M249.5,0.5c-137.8,0-250,112.1-250,250c0,137.8,112.2,250,250,250
		c137.9,0,250-112.2,250-250C499.5,112.7,387.3,0.5,249.5,0.5z M249.5,483.5c-128.5,0-233-104.5-233-233c0-128.5,104.6-233,233-233
		c128.5,0,233,104.6,233,233C482.5,379,378,483.5,249.5,483.5z M330,213.1l-76.9,76.8l-76.9-76.8c-3.3-3.3-8.7-3.3-12,0
		c-1.7,1.7-2.5,3.8-2.5,6c0,2.2,0.8,4.3,2.5,6l82.9,82.8c3.3,3.3,8.7,3.3,12,0l82.9-82.8c3.3-3.3,3.3-8.7,0-12
		C338.7,209.8,333.3,209.8,330,213.1z"/>
</svg>
