<svg xmlns="http://www.w3.org/2000/svg" xmlns:xlink="http://www.w3.org/1999/xlink" version="1.1" id="Layer_1" x="0" y="0" width="60" height="42" viewBox="0 0 60 42" enable-background="new 0 0 60 42" xml:space="preserve">
  <path fill="#9b9ba5" d="M54.07 2.01c-3.79-1.19-13.16-1.66-23.83-1.66 -10.74 0-20.53 0.44-24.33 1.68C5.62 2.12 4.12 2.65 3.09 3.61 2.15 4.49 1.67 5.8 1.51 6.18 0.32 9.09 0.11 13.32 0 20.98c0.14 9.66 0.48 13.91 2.71 16.91 0.21 0.32 0.9 0.98 1.76 1.44 0.98 0.52 2.16 0.82 2.83 0.96 4.49 0.96 13.36 1.32 22.94 1.36 10.58-0.08 19.88-0.49 23.73-1.67 0.31-0.1 1.07-0.32 1.75-0.73 0.7-0.42 1.31-1.02 1.53-1.37 2.27-2.99 2.66-7.2 2.75-16.91 -0.09-9.34-0.45-13.59-2.5-16.56 -0.04-0.06-0.5-0.74-1.32-1.33C55.44 2.55 54.34 2.1 54.07 2.01zM17.49 37.45c-7.78 0-12.51-5.99-12.51-15.56 0-9.56 5.17-15.46 11.79-15.46 7.2 0 11.26 4.44 11.88 12.03h-7.39c-0.24-3.09-1.79-4.83-4.2-4.83 -2.71 0-4.35 2.9-4.35 8.6 0 4.15 0.73 8.02 4.64 8.02 2.51 0 3.67-2.17 3.96-4.98h7.44C28.12 32.86 23.72 37.45 17.49 37.45zM43.19 37.45c-7.78 0-12.51-5.99-12.51-15.56 0-9.56 5.17-15.46 11.79-15.46 7.2 0 11.26 4.44 11.88 12.03h-7.34c-0.24-3.09-1.79-4.83-4.2-4.83 -2.7 0-4.35 2.9-4.35 8.6 0 4.15 0.73 8.02 4.64 8.02 2.51 0 3.67-2.17 3.96-4.98h7.44C53.77 32.86 49.42 37.45 43.19 37.45z"/>
</svg>
