<svg version="1.1" xmlns="http://www.w3.org/2000/svg" xmlns:xlink="http://www.w3.org/1999/xlink" x="0px" y="0px" width="500px" height="500px" viewBox="0 0 500 500" enable-background="new 0 0 500 500" xml:space="preserve">
	<path id="closed-captions" fill="#2418B7" d="M477.1,106.5c-3.4-5.4-9.9-8.6-15.3-12.4C443,80.1,354.6,75,252.1,75
		C149.6,75,57,80.1,38.6,94.1c-5.7,3.9-12.3,7-16.1,12.4C3.8,131.8,1.1,167.6,0,249.6c1.1,82,3.8,117.8,22.6,143.1
		c3.8,5.8,10.3,8.5,16.1,12.4C57,419.5,149.6,424.2,252.1,425c102.5-0.8,190.9-5.5,209.7-19.8c5.4-3.9,11.9-6.6,15.3-12.4
		c19.1-25.3,22.2-61.1,22.9-143.1C499.2,167.6,496.2,131.8,477.1,106.5z M146,389.4c-65,0-104.3-50.7-104.3-131.9
		c0-80.9,43.1-131.2,98-131.2c60.1,0,93.7,37.8,98.9,102h-61.2c-1.9-26-14.7-40.9-35-40.9c-22.7,0-36.3,24.6-36.3,72.9
		c0,35.1,6,68,38.8,68c20.8,0,30.6-18.4,33.1-42.3h62C234.2,350.5,197.9,389.4,146,389.4z M360.1,389.4
		c-65,0-104.3-50.7-104.3-131.9c0-80.9,43.1-131.2,98-131.2c60.1,0,93.7,37.8,98.9,102h-61.2c-1.9-26-14.7-40.9-35-40.9
		c-22.7,0-36.3,24.6-36.3,72.9c0,35.1,6,68,38.8,68c20.8,0,30.6-18.4,33.1-42.3h62C448.4,350.5,412,389.4,360.1,389.4z"/>
</svg>
