<svg version="1.1" xmlns="http://www.w3.org/2000/svg" xmlns:xlink="http://www.w3.org/1999/xlink" x="0px" y="0px" width="500px" height="500px" viewBox="0 0 500 500" enable-background="new 0 0 500 500" xml:space="preserve">
	<path id="close--circle" fill="#2418B7" d="M317.9,170.1l-68.4,68.4l-68.4-68.4c-3.3-3.3-8.7-3.3-12,0
		c-3.3,3.3-3.3,8.7,0,12l68.4,68.4l-68.4,68.4c-3.3,3.3-3.3,8.7,0,12c3.3,3.3,8.7,3.3,12,0l68.4-68.4l68.4,68.5
		c3.3,3.3,8.7,3.3,12,0c3.3-3.3,3.3-8.7,0-12l-68.5-68.4l68.4-68.4c3.3-3.3,3.3-8.7,0-12C326.6,166.8,321.3,166.8,317.9,170.1z
		 M72.7,427.3c-97.5-97.5-97.5-256.1,0-353.6c97.5-97.5,256.1-97.5,353.6,0c97.5,97.5,97.5,256.1,0,353.6
		C328.8,524.7,170.2,524.7,72.7,427.3z M414.3,85.7c-90.9-90.9-238.7-90.9-329.6,0c-90.9,90.9-90.9,238.7,0,329.6
		c90.9,90.9,238.7,90.9,329.6,0C505.2,324.4,505.1,176.6,414.3,85.7z"/>
</svg>
