<svg version="1.1" xmlns="http://www.w3.org/2000/svg" xmlns:xlink="http://www.w3.org/1999/xlink" x="0px" y="0px" width="500px" height="500px" viewBox="0 0 500 500" enable-background="new 0 0 500 500" xml:space="preserve">
	<path id="download--circle" fill="#2418B7" d="M-0.5,250.5c0-137.9,112.2-250,250-250c137.9,0,250,112.1,250,250
		c0,137.8-112.1,250-250,250C111.7,500.5-0.5,388.3-0.5,250.5z M482.5,250.5c0-128.5-104.5-233-233-233c-128.5,0-233,104.6-233,233
		c0,128.5,104.6,233,233,233C378,483.5,482.5,379,482.5,250.5z M326.9,179.7L250,256.5l-76.9-76.8c-3.3-3.3-8.7-3.3-12,0
		c-1.7,1.7-2.5,3.8-2.5,6c0,2.2,0.8,4.3,2.5,6l82.9,82.8c3.3,3.3,8.7,3.3,12,0l82.9-82.8c3.3-3.3,3.3-8.7,0-12
		C335.6,176.4,330.2,176.4,326.9,179.7z M355.3,305.8H144.7c-4.7,0-8.5,3.6-8.5,8.5c0,4.9,3.8,8.5,8.5,8.5h210.5
		c4.7,0,8.5-3.6,8.5-8.5C363.8,309.4,360,305.8,355.3,305.8z M136.2,314.3c0,4.7,3.6,8.5,8.5,8.5c4.9,0,8.5-3.8,8.5-8.5"/>
</svg>
