<svg version="1.1" xmlns="http://www.w3.org/2000/svg" xmlns:xlink="http://www.w3.org/1999/xlink" x="0px" y="0px" width="500px" height="500px" viewBox="0 0 500 500" enable-background="new 0 0 500 500" xml:space="preserve">
	<path id="facebook--circle" fill="#2418B7" d="M-0.5,250.5c0-137.9,112.2-250,250-250c137.9,0,250,112.1,250,250
		c0,137.8-112.1,250-250,250C111.7,500.5-0.5,388.3-0.5,250.5z M482.5,250.5c0-128.5-104.5-233-233-233c-128.5,0-233,104.6-233,233
		c0,128.5,104.6,233,233,233C378,483.5,482.5,379,482.5,250.5z M300.2,147.3c-3.4-0.5-15.1-1.5-28.6-1.5c-28.4,0-47.8,17.3-47.8,49
		v27.3h-32v37.1h32v95.1h38.4v-95.1h31.9l4.9-37.1h-36.8v-23.7c0-10.6,2.9-18,18.3-18h19.7V147.3z"/>
</svg>
