<svg version="1.1" xmlns="http://www.w3.org/2000/svg" xmlns:xlink="http://www.w3.org/1999/xlink" x="0px" y="0px" width="500px" height="500px" viewBox="0 0 500 500" enable-background="new 0 0 500 500" xml:space="preserve">
	<path id="googleplus--circle" fill="#2418B7" d="M-0.5,250.5c0-137.9,112.2-250,250-250c137.9,0,250,112.1,250,250
		c0,137.8-112.1,250-250,250C111.7,500.5-0.5,388.3-0.5,250.5z M482.5,250.5c0-128.5-104.5-233-233-233c-128.5,0-233,104.6-233,233
		c0,128.5,104.6,233,233,233C378,483.5,482.5,379,482.5,250.5z M203.5,238.2v28.3h47.6c-1.9,12.1-14.4,35.6-47.6,35.6
		c-28.7,0-52-23.3-52-52s23.4-52,52-52c16.3,0,27.2,6.8,33.5,12.7l22.8-21.5c-14.6-13.4-33.6-21.5-56.2-21.5
		c-46.4,0-83.9,36.9-83.9,82.4s37.5,82.4,83.9,82.4c48.4,0,80.6-33.4,80.6-80.5c0-5.4-0.6-9.5-1.3-13.7H203.5z M356.4,238.2v-23.6
		h-24v23.6h-24v23.5h24v23.6h24v-23.6h24c0,0.2,0-23.5,0-23.5H356.4z"/>
</svg>
