<svg version="1.1" xmlns="http://www.w3.org/2000/svg" xmlns:xlink="http://www.w3.org/1999/xlink" x="0px" y="0px" width="500px" height="500px" viewBox="0 0 500 500" enable-background="new 0 0 500 500" xml:space="preserve">
	<path id="info--circle" fill="#2418B7" d="M249.5,0.5c-137.8,0-250,112.1-250,250c0,137.8,112.2,250,250,250
		c137.9,0,250-112.2,250-250C499.5,112.7,387.3,0.5,249.5,0.5z M249.5,483.5c-128.5,0-233-104.5-233-233c0-128.5,104.6-233,233-233
		c128.5,0,233,104.6,233,233C482.5,379,378,483.5,249.5,483.5z M235,360h33V218h-33V360z M251.8,155.9c-10.4,0-18.8,8.4-18.8,18.8
		c0,10.4,8.4,18.8,18.8,18.8c10.4,0,18.8-8.4,18.8-18.8C270.6,164.3,262.2,155.9,251.8,155.9z"/>
</svg>
