<svg version="1.1" xmlns="http://www.w3.org/2000/svg" xmlns:xlink="http://www.w3.org/1999/xlink" x="0px" y="0px" width="500px" height="500px" viewBox="0 0 500 500" enable-background="new 0 0 500 500" xml:space="preserve">
	<path id="more--circle" fill="#2418B7" d="M-0.5,250.5c0-137.9,112.2-250,250-250c137.9,0,250,112.1,250,250
		c0,137.8-112.1,250-250,250C111.7,500.5-0.5,388.3-0.5,250.5z M482.5,250.5c0-128.5-104.5-233-233-233c-128.5,0-233,104.6-233,233
		c0,128.5,104.6,233,233,233C378,483.5,482.5,379,482.5,250.5z M154.9,230.5c10.4,0,18.8,8.4,18.8,18.8c0,10.4-8.4,18.8-18.8,18.8
		c-10.4,0-18.8-8.4-18.8-18.8C136.1,238.9,144.5,230.5,154.9,230.5z M250,232c-10.3,0-18.8,8.4-18.8,18.8c0,10.3,8.4,18.8,18.8,18.8
		c10.4,0,18.8-8.4,18.8-18.8C268.8,240.4,260.3,232,250,232z M345.1,231.9c10.4,0,18.8,8.4,18.8,18.8c0,10.4-8.4,18.8-18.8,18.8
		c-10.4,0-18.8-8.4-18.8-18.8C326.4,240.4,334.8,231.9,345.1,231.9z"/>
</svg>
