<svg version="1.1" xmlns="http://www.w3.org/2000/svg" xmlns:xlink="http://www.w3.org/1999/xlink" x="0px" y="0px" width="500px" height="500px" viewBox="0 0 500 500" enable-background="new 0 0 500 500" xml:space="preserve">
	<path id="pin--circle" fill="#2418B7" d="M-0.5,250.5c0-137.9,112.2-250,250-250c137.9,0,250,112.1,250,250
		c0,137.8-112.1,250-250,250C111.7,500.5-0.5,388.3-0.5,250.5z M482.5,250.5c0-128.5-104.5-233-233-233c-128.5,0-233,104.6-233,233
		c0,128.5,104.6,233,233,233C378,483.5,482.5,379,482.5,250.5z M250,143.3c-38.9,0-70.6,31.7-70.6,70.6c0,15.7,10,41.2,30.6,78.1
		c14.6,26.1,28.9,47.9,29.5,48.8l10.5,15.9l10.5-15.9c0.6-0.9,14.9-22.7,29.5-48.8c20.6-36.9,30.6-62.4,30.6-78.1
		C320.6,175,288.9,143.3,250,143.3L250,143.3z M250,250c-20.2,0-36.6-16.4-36.6-36.6s16.4-36.6,36.6-36.6
		c20.2,0,36.6,16.4,36.6,36.6S270.2,250,250,250L250,250z M250,250"/>
</svg>
