<svg version="1.1" xmlns="http://www.w3.org/2000/svg" xmlns:xlink="http://www.w3.org/1999/xlink" x="0px" y="0px" width="500px" height="500px" viewBox="0 0 500 500" enable-background="new 0 0 500 500" xml:space="preserve">
	<path id="play--circle" fill="#2418B7" d="M-0.5,250.5c0-137.9,112.2-250,250-250c137.9,0,250,112.1,250,250
		c0,137.8-112.1,250-250,250C111.7,500.5-0.5,388.3-0.5,250.5z M482.5,250.5c0-128.5-104.5-233-233-233c-128.5,0-233,104.6-233,233
		c0,128.5,104.6,233,233,233C378,483.5,482.5,379,482.5,250.5z M326.7,244.4L201.1,171c-2-1.2-4.2-1.2-6.2,0c-2,1.2-3,3.3-3,5.6
		v146.8c0,2.3,1,4.5,3,5.6c1,0.6,2,0.9,3.1,0.9c1.1,0,2.2-0.3,3.1-0.9l125.5-73.4c2-1.2,3.2-3.3,3.2-5.6
		C329.9,247.7,328.6,245.6,326.7,244.4z"/>
</svg>
