<svg xmlns="http://www.w3.org/2000/svg" xmlns:xlink="http://www.w3.org/1999/xlink" version="1" id="Layer_1" x="0" y="0" width="60" height="60" viewBox="0 0 60 60" enable-background="new 0 0 60 60" xml:space="preserve">
  <path fill="#ffffff" d="M30-0.01c-16.55 0-30.01 13.46-30.01 30.01 0 16.55 13.46 30.01 30.01 30.01 16.54 0 30.01-13.46 30.01-30.01C60.01 13.45 46.55-0.01 30-0.01zM30 57.97c-15.42 0-27.97-12.55-27.97-27.97 0-15.42 12.55-27.97 27.97-27.97 15.42 0 27.97 12.55 27.97 27.97C57.97 45.42 45.42 57.97 30 57.97zM42.64 28.98H31.02V17.36c0-0.56-0.46-1.02-1.02-1.02s-1.02 0.46-1.02 1.02v11.62H17.36c-0.56 0-1.02 0.46-1.02 1.02 0 0.56 0.46 1.02 1.02 1.02h11.62v11.62c0 0.56 0.46 1.02 1.02 1.02s1.02-0.46 1.02-1.02V31.02h11.62c0.56 0 1.02-0.46 1.02-1.02C43.65 29.44 43.2 28.98 42.64 28.98z"/>
</svg>