<svg xmlns="http://www.w3.org/2000/svg" version="1.1" x="0" y="0" width="60" height="60" viewBox="0 0 60 60" enable-background="new 0 0 60 60" xml:space="preserve">
  <path fill="#ffffff" d="M0.2 37.3c0 10.4 6.5 16.4 13.9 16.4 6.9 0 12.1-5.6 12.1-12.1 0-6.8-4.7-11.3-10.7-11.3 -1.1 0-2.6 0.2-3 0.3 1.1-6.3 7.3-13.9 13.3-17.5l-8.6-6.8C7.1 13.3 0.2 24.7 0.2 37.3zM33.7 37.3c0 10.4 6.5 16.4 14 16.4 6.8 0 12.1-5.6 12.1-12.1 0-6.8-4.7-11.3-10.7-11.3 -1.3 0-2.6 0.2-3 0.3 0.9-6.3 7.1-13.9 13.1-17.5l-8.6-6.8C40.8 13.3 33.7 24.7 33.7 37.3z"/>
</svg>
