<svg version="1.1" xmlns="http://www.w3.org/2000/svg" xmlns:xlink="http://www.w3.org/1999/xlink" x="0px" y="0px" width="500px" height="500px" viewBox="0 0 500 500" enable-background="new 0 0 500 500" xml:space="preserve">
	<path id="quote" fill="#2418B7" d="M0,311.4c0,88.2,54.7,138.6,115.6,138.6c57.8,0,101.6-47.3,101.6-102.4
		c0-56.7-39.1-96.1-89.1-96.1c-9.4,0-21.9,1.6-25,3.2c9.4-53.6,60.9-116.6,110.9-148.1l-71.9-56.7C59.4,108.2,0,204.3,0,311.4z
		 M281.3,311.4c0,88.2,54.7,138.6,117.2,138.6c56.2,0,101.6-47.3,101.6-102.4c0-56.7-39.1-96.1-89.1-96.1c-10.9,0-21.9,1.6-25,3.2
		c7.8-53.6,59.4-116.6,109.4-148.1l-71.9-56.7C340.6,108.2,281.3,204.3,281.3,311.4z"/>
</svg>
