<svg version="1.1" xmlns="http://www.w3.org/2000/svg" xmlns:xlink="http://www.w3.org/1999/xlink" x="0px" y="0px" width="500px" height="500px" viewBox="0 0 500 500" enable-background="new 0 0 500 500" xml:space="preserve">
	<path id="search--circle" fill="#2418B7" d="M250,0C112.1,0,0,112.2,0,250c0,137.8,112.1,250,250,250
		c137.8,0,250-112.1,250-250C500,112.1,387.8,0,250,0z M250,483.1C121.5,483.1,17,378.5,17,250C17,121.5,121.5,17,250,17
		C378.5,17,483,121.5,483,250C483,378.5,378.5,483.1,250,483.1z M301.2,285.1c-0.4-0.4-0.8-0.7-1.2-1c11-13.6,17.6-30.8,17.6-49.5
		c0-43.5-35.4-78.9-78.9-78.9c-43.5,0-78.9,35.4-78.9,78.9c0,43.5,35.4,78.9,78.9,78.9c18.8,0,36-6.6,49.5-17.6
		c0.3,0.4,0.6,0.8,1,1.2l47.7,47.7c1.7,1.7,3.8,2.5,6,2.5c2.2,0,4.4-0.8,6-2.5c3.3-3.3,3.3-8.7,0-12L301.2,285.1z M238.7,296.5
		c-34.1,0-61.9-27.8-61.9-61.9c0-34.2,27.8-62,61.9-62c34.2,0,61.9,27.8,61.9,62C300.6,268.7,272.9,296.5,238.7,296.5z"/>
</svg>
