<svg version="1.1" xmlns="http://www.w3.org/2000/svg" xmlns:xlink="http://www.w3.org/1999/xlink" x="0px" y="0px" width="500px" height="500px" viewBox="0 0 500 500" enable-background="new 0 0 500 500" xml:space="preserve">
	<path id="search" fill="#2418B7" d="M493.5,462.2L369,337.7c-1-1-2.1-1.9-3.2-2.6c28.6-35.4,45.7-80.3,45.7-129.2
		C411.6,92.4,319.2,0,205.8,0C92.3,0,0,92.4,0,205.9c0,113.5,92.3,205.9,205.8,205.9c49,0,94-17.2,129.4-45.9
		c0.8,1.1,1.6,2.2,2.6,3.2l124.5,124.5c8.6,8.6,22.7,8.6,31.3,0C502.2,484.9,502.2,470.9,493.5,462.2z M205.8,367.5
		c-89,0-161.5-72.5-161.5-161.6c0-89.1,72.5-161.7,161.5-161.7c89.1,0,161.6,72.5,161.6,161.7C367.4,295,294.9,367.5,205.8,367.5z"/>
</svg>
