<svg version="1.1" xmlns="http://www.w3.org/2000/svg" xmlns:xlink="http://www.w3.org/1999/xlink" x="0px" y="0px" width="500px" height="500px" viewBox="0 0 500 500" enable-background="new 0 0 500 500" xml:space="preserve">
	<path id="text--circle" fill="#2418B7" d="M-0.5,250.5c0-137.9,112.2-250,250-250c137.9,0,250,112.1,250,250
		c0,137.8-112.1,250-250,250C111.7,500.5-0.5,388.3-0.5,250.5z M482.5,250.5c0-128.5-104.5-233-233-233c-128.5,0-233,104.6-233,233
		c0,128.5,104.6,233,233,233C378,483.5,482.5,379,482.5,250.5z M355.3,201.5H144.7c-4.7,0-8.5,3.6-8.5,8.5c0,4.9,3.8,8.5,8.5,8.5
		h210.5c4.7,0,8.5-3.6,8.5-8.5C363.8,205.1,360,201.5,355.3,201.5z M355.3,131.5H144.7c-4.7,0-8.5,3.6-8.5,8.5
		c0,4.9,3.8,8.5,8.5,8.5h210.5c4.7,0,8.5-3.6,8.5-8.5C363.8,135.1,360,131.5,355.3,131.5z M355.3,271.5H144.7
		c-4.7,0-8.5,3.6-8.5,8.5c0,4.9,3.8,8.5,8.5,8.5h210.5c4.7,0,8.5-3.6,8.5-8.5C363.8,275.1,360,271.5,355.3,271.5z M275.6,341.6
		H144.7c-4.7,0-8.5,3.6-8.5,8.5c0,4.9,3.8,8.5,8.5,8.5h130.9c4.7,0,8.5-3.6,8.5-8.5C284.1,345.1,280.3,341.6,275.6,341.6z"/>
</svg>
