<svg version="1.1" xmlns="http://www.w3.org/2000/svg" xmlns:xlink="http://www.w3.org/1999/xlink" x="0px" y="0px" width="500px" height="500px" viewBox="0 0 500 500" enable-background="new 0 0 500 500" xml:space="preserve">
	<path id="time--circle" fill="#2418B7" d="M-0.5,250.5c0-137.9,112.2-250,250-250c137.9,0,250,112.1,250,250
		c0,137.8-112.1,250-250,250C111.7,500.5-0.5,388.3-0.5,250.5z M482.5,250.5c0-128.5-104.5-233-233-233c-128.5,0-233,104.6-233,233
		c0,128.5,104.6,233,233,233C378,483.5,482.5,379,482.5,250.5z M383.5,247H259.4c-0.2-1-0.6-2-1.2-3l-76.2-118
		c-2.5-3.9-7.6-5.1-11.7-2.5c-4.1,2.7-5.1,7.8-2.5,11.7l75.9,117.6c-1.6,2.2-2.5,5.2-2.5,8.2c0,7.9,6.1,13.9,13.6,13.9h128.8
		c7.5,0,13.6-6.1,13.6-14C397.1,253.1,391,247,383.5,247z"/>
</svg>
