<svg version="1.1" xmlns="http://www.w3.org/2000/svg" xmlns:xlink="http://www.w3.org/1999/xlink" x="0px" y="0px" width="500px" height="500px" viewBox="0 0 500 500" enable-background="new 0 0 500 500" xml:space="preserve">
	<path id="twitter--circle" fill="#2418B7" d="M-0.5,250.5c0-137.9,112.2-250,250-250c137.9,0,250,112.1,250,250
		c0,137.8-112.1,250-250,250C111.7,500.5-0.5,388.3-0.5,250.5z M482.5,250.5c0-128.5-104.5-233-233-233c-128.5,0-233,104.6-233,233
		c0,128.5,104.6,233,233,233C378,483.5,482.5,379,482.5,250.5z M348.4,169.8c-8.3,4.8-17.4,8.3-27.2,10.2
		c-7.8-8.2-18.9-13.3-31.2-13.3c-23.6,0-42.7,18.8-42.7,42.1c0,3.3,0.4,6.5,1.1,9.6c-35.5-1.8-67-18.5-88.1-44
		c-3.7,6.2-5.8,13.4-5.8,21.1c0,14.6,7.5,27.5,19,35c-7-0.2-13.6-2.1-19.4-5.3v0.5c0,20.4,14.7,37.4,34.3,41.3
		c-3.6,1-7.4,1.5-11.3,1.5c-2.8,0-5.4-0.3-8-0.8c5.4,16.7,21.2,28.9,39.9,29.2c-14.6,11.3-33.1,18-53.1,18c-3.5,0-6.9-0.2-10.2-0.6
		c18.9,11.9,41.4,18.9,65.5,18.9c78.6,0,121.6-64.1,121.6-119.7l-0.1-5.5c8.4-5.9,15.6-13.3,21.3-21.7c-7.7,3.3-15.9,5.6-24.5,6.6
		C338.4,187.8,345.2,179.6,348.4,169.8z"/>
</svg>
