<svg xmlns="http://www.w3.org/2000/svg" xmlns:xlink="http://www.w3.org/1999/xlink" version="1" id="Layer_1" x="0" y="0" width="60" height="60" viewBox="0 0 60 60" enable-background="new 0 0 60 60" xml:space="preserve">
  <path fill="#232326" d="M30-0.01c-16.55 0-30.01 13.46-30.01 30.01 0 16.55 13.46 30.01 30.01 30.01 16.54 0 30.01-13.46 30.01-30.01S46.55-0.01 30-0.01zM30 57.97c-15.42 0-27.97-12.55-27.97-27.97 0-15.42 12.55-27.97 27.97-27.97 15.42 0 27.97 12.55 27.97 27.97C57.97 45.42 45.42 57.97 30 57.97zM42.31 20.37c-0.99 0.58-2.09 1-3.26 1.23 -0.94-0.98-2.27-1.6-3.74-1.6 -2.83 0-5.13 2.26-5.13 5.05 0 0.4 0.05 0.78 0.13 1.15 -4.26-0.21-8.04-2.22-10.57-5.28 -0.44 0.74-0.69 1.61-0.69 2.54 0 1.75 0.91 3.3 2.28 4.2 -0.84-0.03-1.63-0.26-2.32-0.63v0.06c0 2.45 1.77 4.49 4.11 4.95 -0.43 0.11-0.88 0.18-1.35 0.18 -0.33 0-0.65-0.03-0.97-0.09 0.65 2.01 2.55 3.47 4.79 3.51 -1.75 1.35-3.97 2.16-6.37 2.16 -0.41 0-0.82-0.02-1.22-0.07 2.27 1.43 4.97 2.27 7.86 2.27 9.43 0 14.59-7.69 14.59-14.37l-0.02-0.65c1-0.71 1.88-1.6 2.56-2.61 -0.92 0.4-1.91 0.67-2.94 0.8C41.11 22.53 41.92 21.54 42.31 20.37z"/>
</svg>