<svg version="1.1" xmlns="http://www.w3.org/2000/svg" xmlns:xlink="http://www.w3.org/1999/xlink" x="0px" y="0px" width="500px" height="500px" viewBox="0 0 500 500" enable-background="new 0 0 500 500" xml:space="preserve">
	<path id="vimeo--circle" fill="#2418B7" d="M-0.5,250.5c0-137.9,112.2-250,250-250c137.9,0,250,112.1,250,250
		c0,137.8-112.1,250-250,250C111.7,500.5-0.5,388.3-0.5,250.5z M482.5,250.5c0-128.5-104.5-233-233-233c-128.5,0-233,104.6-233,233
		c0,128.5,104.6,233,233,233C378,483.5,482.5,379,482.5,250.5z M326.7,160c-0.9,0-1.8,0-2.6,0c-31.2,0-52.3,16.8-63.3,49.8
		c6.1-2.2,11.9-3.2,17.2-3.2c10.6,0,15.9,4.7,15.9,14.1c0,1.2-0.1,2.6-0.3,4c-0.7,6.9-5.9,17.6-15.6,32c-9.9,14-17.3,21-22,21
		c-6.2-0.1-12-10.9-17.4-32.4c-1-3.2-2.2-8.9-3.6-17c-1.5-8.1-3.3-18.6-5.5-31.6c-4-22.7-14.1-34.1-30.3-34.1c-1.1,0-2.1,0-3.2,0.1
		c-7.9,0.9-19.4,7.3-34.6,19.2l-16.9,13.8l-17.2,13.9l11.1,12.8c10.4-6.6,16.5-9.9,18.2-9.9c8,0,15.5,11.3,22.5,34l9.5,31.4
		l9.6,31.4c9.2,22.9,20.5,34.3,34.3,34.3c22.1-0.1,48.9-18.8,80.6-56.2c30.7-35.7,46.5-63.9,47.5-84.6c0.1-1.7,0.2-3.6,0.2-5.2
		C360.6,173.3,349.3,161,326.7,160z"/>
</svg>
