<svg xmlns="http://www.w3.org/2000/svg" xmlns:xlink="http://www.w3.org/1999/xlink" version="1.0" id="Layer_1" x="0px" y="0px" width="60px" height="60px" viewBox="0 0 60 60" enable-background="new 0 0 60 60" xml:space="preserve">
  <path fill="#232326" d="M30-0.006c-16.544 0-30.007 13.462-30.007 30.007 0 16.546 13.462 30.007 30.006 30.007 16.546 0 30.007-13.461 30.007-30.007C60.007 13.456 46.546-0.006 30-0.006zM30 57.973c-15.424 0-27.971-12.548-27.971-27.972C2.028 14.578 14.576 2.029 30 2.029c15.423 0 27.972 12.549 27.972 27.972C57.972 45.425 45.423 57.973 30 57.973zM34.487 19.764c-0.198-0.198-0.458-0.298-0.72-0.298 -0.261 0-0.521 0.1-0.721 0.3l-9.937 9.948c-0.398 0.397-0.398 1.042 0 1.439l9.937 9.949c0.397 0.397 1.043 0.397 1.44 0 0.396-0.396 0.396-1.043 0-1.44l-9.22-9.229 9.22-9.229C34.885 20.807 34.885 20.16 34.487 19.764z"/>
</svg>