<svg xmlns="http://www.w3.org/2000/svg" xmlns:xlink="http://www.w3.org/1999/xlink" version="1.0" id="Layer_1" x="0px" y="0px" width="60px" height="60px" viewBox="0 0 60 60" enable-background="new 0 0 60 60" xml:space="preserve">
  <path fill="#232326" d="M39.653 20.346c-0.397-0.397-1.041-0.397-1.439 0l-8.215 8.216 -8.215-8.216c-0.397-0.397-1.041-0.397-1.438 0s-0.397 1.041 0 1.438L28.561 30l-8.214 8.214c-0.397 0.397-0.397 1.041 0 1.439 0.197 0.199 0.458 0.299 0.719 0.299 0.26 0 0.521-0.1 0.719-0.299l8.215-8.215 8.215 8.215c0.198 0.199 0.459 0.299 0.721 0.299 0.259 0 0.52-0.1 0.717-0.299 0.398-0.398 0.398-1.042 0-1.439L31.438 30l8.216-8.216C40.051 21.387 40.051 20.743 39.653 20.346zM30.001-0.007c-16.548 0-30.008 13.462-30.008 30.008 0 16.545 13.46 30.006 30.008 30.006 16.544 0 30.006-13.459 30.006-30.006S46.546-0.007 30.001-0.007zM30.001 57.974c-15.424 0-27.973-12.55-27.973-27.973 0-15.424 12.549-27.973 27.973-27.973 15.422 0 27.971 12.549 27.971 27.973C57.972 45.424 45.423 57.974 30.001 57.974z"/>
</svg>