<svg xmlns="http://www.w3.org/2000/svg" xmlns:xlink="http://www.w3.org/1999/xlink" version="1.0" id="Layer_1" x="0px" y="0px" width="60px" height="60px" viewBox="0 0 60 60" enable-background="new 0 0 60 60" xml:space="preserve">
  <path fill="#232326" d="M30-0.007C13.454-0.007-0.007 13.454-0.007 30S13.454 60.007 30 60.007c16.545 0 30.007-13.461 30.007-30.007S46.545-0.007 30-0.007zM30 57.972C14.576 57.972 2.027 45.424 2.027 30S14.576 2.028 30 2.028c15.423 0 27.972 12.548 27.972 27.972S45.423 57.972 30 57.972zM29.281 34.058c0.007 0.007 0.017 0.009 0.024 0.016 0.089 0.084 0.19 0.155 0.305 0.203 0.125 0.051 0.257 0.078 0.39 0.078 0.13 0 0.261-0.025 0.383-0.074 0.002-0.001 0.004-0.003 0.007-0.005 0.104-0.043 0.192-0.109 0.275-0.182 0.015-0.013 0.034-0.018 0.048-0.032 0.002-0.002 0.004-0.002 0.006-0.004 0.001-0.001 0.002-0.001 0.003-0.002s0.001-0.002 0.002-0.003l4.519-4.507c0.398-0.397 0.398-1.042 0.003-1.439 -0.396-0.398-1.044-0.398-1.44-0.002l-2.787 2.779v-13.32c0-0.562-0.456-1.018-1.018-1.018 -0.562 0-1.018 0.456-1.018 1.018v13.32l-2.786-2.779c-0.396-0.396-1.044-0.396-1.44 0.002 -0.396 0.397-0.396 1.042 0.003 1.439L29.281 34.058zM16.997 42.997h27v-2h-27V42.997z"/>
</svg>