<svg xmlns="http://www.w3.org/2000/svg" xmlns:xlink="http://www.w3.org/1999/xlink" version="1" id="Layer_1" x="0" y="0" width="60" height="60" viewBox="0 0 60 60" enable-background="new 0 0 60 60" xml:space="preserve">
  <path fill="#232326" d="M26.4 22.45v3.28h-3.84v4.45h3.84v11.41h4.61V30.18h3.83l0.59-4.45h-4.41V22.89c0-1.28 0.35-2.16 2.2-2.16h2.37v-3.97c-0.41-0.06-1.81-0.18-3.44-0.18C28.73 16.57 26.4 18.65 26.4 22.45zM30-0.01c-16.55 0-30.01 13.46-30.01 30.01 0 16.55 13.46 30.01 30.01 30.01 16.54 0 30.01-13.46 30.01-30.01S46.55-0.01 30-0.01zM30 57.97c-15.42 0-27.97-12.55-27.97-27.97 0-15.42 12.55-27.97 27.97-27.97 15.42 0 27.97 12.55 27.97 27.97C57.97 45.42 45.42 57.97 30 57.97z"/>
</svg>