<svg xmlns="http://www.w3.org/2000/svg" xmlns:xlink="http://www.w3.org/1999/xlink" version="1" id="Layer_1" x="0" y="0" width="60" height="60" viewBox="0 0 60 60" enable-background="new 0 0 60 60" xml:space="preserve">
  <path fill="#ffffff" d="M30-0.01c-16.55 0-30.01 13.46-30.01 30.01 0 16.55 13.46 30.01 30.01 30.01 16.54 0 30.01-13.46 30.01-30.01S46.55-0.01 30-0.01zM30 57.97c-15.42 0-27.97-12.55-27.97-27.97 0-15.42 12.55-27.97 27.97-27.97 15.42 0 27.97 12.55 27.97 27.97C57.97 45.42 45.42 57.97 30 57.97zM36.62 17h-5.89c-2.62 0-4.44 0.58-6.07 1.95 -1.28 1.12-2.05 2.76-2.05 4.37 0 2.48 1.87 5.12 5.33 5.12 0.33 0 0.7-0.03 1.03-0.06l-0.05 0.12c-0.14 0.34-0.27 0.66-0.27 1.15 0 0.97 0.46 1.56 0.91 2.14l0.06 0.07 -0.1 0.01c-1.43 0.1-4.09 0.28-6.04 1.49 -2.3 1.38-2.47 3.4-2.47 3.98 0 2.32 2.14 4.66 6.91 4.66 5.55 0 8.45-3.1 8.45-6.16 0-2.26-1.31-3.38-2.7-4.57l-1.17-0.92c-0.36-0.3-0.81-0.68-0.81-1.39 0-0.69 0.45-1.14 0.85-1.55l0.04-0.04c1.27-1.01 2.71-2.16 2.71-4.64 0-2.49-1.54-3.78-2.28-4.4h1.95c0.02 0 0.05-0.01 0.07-0.02l1.68-1.07c0.05-0.03 0.07-0.09 0.06-0.15C36.73 17.04 36.67 17 36.62 17zM34.2 37.11c0 2.17-1.81 3.52-4.72 3.52 -3.38 0-5.65-1.6-5.65-3.98 0-1.55 0.93-2.68 2.76-3.36 1.47-0.5 3.36-0.52 3.38-0.52 0.32 0 0.48 0 0.74 0.03C33.07 34.51 34.2 35.4 34.2 37.11zM31.63 26.61c-0.54 0.55-1.42 0.91-2.18 0.91 -2.84 0-4.02-3.78-4.02-5.8 0-1.03 0.23-1.82 0.71-2.41 0.52-0.65 1.4-1.07 2.25-1.07 2.61 0 4.05 3.55 4.05 6C32.44 24.61 32.44 25.79 31.63 26.61zM44.87 28.67h-3.1v-3.13c0-0.07-0.06-0.13-0.13-0.13h-1.33c-0.07 0-0.13 0.06-0.13 0.13v3.13h-3.09c-0.07 0-0.13 0.06-0.13 0.13v1.37c0 0.07 0.06 0.13 0.13 0.13h3.09v3.15c0 0.07 0.06 0.13 0.13 0.13h1.33c0.07 0 0.13-0.06 0.13-0.13v-3.15h3.1c0.07 0 0.13-0.06 0.13-0.13v-1.37C45 28.73 44.94 28.67 44.87 28.67z"/>
</svg>