<svg xmlns="http://www.w3.org/2000/svg" xmlns:xlink="http://www.w3.org/1999/xlink" version="1" id="Layer_1" x="0" y="0" width="60" height="60" viewBox="0 0 60 60" enable-background="new 0 0 60 60" xml:space="preserve">
  <path fill="#232326" d="M30 0C13.46 0 0 13.46 0 30s13.46 30 30 30c16.54 0 30-13.46 30-30S46.54 0 30 0zM30 57.97C14.58 57.97 2.03 45.42 2.03 30 2.03 14.58 14.58 2.03 30 2.03c15.42 0 27.97 12.55 27.97 27.97C57.97 45.42 45.42 57.97 30 57.97zM28.09 43.09h4v-17h-4V43.09zM30.17 18.66c-1.24 0-2.25 1.01-2.25 2.25 0 1.24 1.01 2.25 2.25 2.25 1.24 0 2.25-1.01 2.25-2.25C32.42 19.67 31.41 18.66 30.17 18.66z"/>
</svg>
