<svg xmlns="http://www.w3.org/2000/svg" xmlns:xlink="http://www.w3.org/1999/xlink" version="1.1" id="Layer_1" x="0" y="0" width="220" height="81" viewBox="0 0 220 81" enable-background="new 0 0 220 81" xml:space="preserve">
  <path fill="#232326" d="M63.82-0.01c-0.48 0-0.89 0.17-1.21 0.51 -0.32 0.34-0.48 0.74-0.48 1.19V34.38c0 0.45 0.16 0.85 0.49 1.19 0.32 0.34 0.73 0.51 1.21 0.51 0.45 0 0.85-0.17 1.19-0.51 0.34-0.34 0.51-0.73 0.51-1.19V1.68c0-0.45-0.17-0.85-0.51-1.19C64.67 0.16 64.27-0.01 63.82-0.01zM95.94 1.25c0-0.1-0.03-0.21-0.1-0.34l-0.05-0.05 -0.05-0.05V0.76l-0.05-0.05c0-0.03-0.02-0.05-0.05-0.05 -0.06-0.13-0.13-0.21-0.19-0.24l-0.05-0.05h-0.05c0-0.03-0.02-0.05-0.05-0.05l-0.05-0.05h-0.05V0.23h-0.05V0.18h-0.1L95.02 0.13h-0.05l-0.05-0.05h-0.1V0.04h-0.05 -0.05H94.68h-0.05v-0.05h-0.05 -0.05 -0.05H94.39h-0.1 -0.1 -0.05 -0.05 -0.05H94c-0.03 0-0.05 0.02-0.05 0.05h-0.05 -0.05c-0.06 0.03-0.12 0.05-0.17 0.05 -0.05 0-0.09 0.02-0.12 0.05 -0.03 0-0.05 0.02-0.05 0.05h-0.05 -0.05V0.23c-0.03 0-0.05 0.02-0.05 0.05h-0.05c-0.03 0-0.05 0.02-0.05 0.05C93.21 0.36 93.11 0.44 92.98 0.57v0.05c-0.03 0-0.05 0.02-0.05 0.05l-0.05 0.05v0.05h-0.05v0.05l-0.05 0.05v0.05l-7.32 14.36L78.14 0.91l-0.05-0.05V0.81l-0.05-0.05c0-0.03-0.02-0.05-0.05-0.05V0.67l-0.05-0.05V0.57c-0.03 0-0.05-0.02-0.05-0.05 -0.06-0.03-0.15-0.1-0.24-0.19 -0.03-0.03-0.06-0.05-0.1-0.05L77.51 0.23c-0.03 0-0.05-0.02-0.05-0.05 -0.03 0-0.06-0.02-0.1-0.05 -0.13-0.06-0.26-0.1-0.39-0.1l-0.05-0.05h-0.05H76.83h-0.05 -0.05 -0.05 -0.05 -0.05 -0.05 -0.1 -0.1 -0.05c-0.03 0-0.05 0.02-0.05 0.05H76.2h-0.05 -0.05l-0.05 0.05h-0.05c-0.03 0-0.05 0.01-0.05 0.02 0 0.02-0.02 0.02-0.05 0.02 -0.03 0-0.05 0.02-0.05 0.05h-0.05 -0.05v0.05h-0.05c-0.03 0-0.05 0.02-0.05 0.05h-0.05v0.05h-0.05c-0.03 0-0.05 0.02-0.05 0.05l-0.05 0.05c-0.06 0.03-0.1 0.07-0.12 0.1 -0.02 0.03-0.06 0.08-0.12 0.15 0 0.03-0.02 0.05-0.05 0.05v0.05l-0.05 0.05v0.05l-0.05 0.05c-0.06 0.19-0.11 0.32-0.15 0.39v0.1 0.05c0 0.03-0.02 0.05-0.05 0.05v0.05 0.05 0.1V34.38c0 0.45 0.17 0.85 0.51 1.19 0.34 0.34 0.75 0.51 1.24 0.51 0.45 0 0.85-0.17 1.19-0.51 0.34-0.34 0.51-0.74 0.51-1.19V8.81l5.48 10.82c0.16 0.45 0.45 0.78 0.87 0.97 0.13 0.07 0.25 0.11 0.37 0.14 0.11 0.03 0.25 0.05 0.41 0.05 0.19 0 0.45-0.06 0.78-0.19 0.39-0.19 0.66-0.52 0.82-0.97l5.53-10.82V34.38c0 0.45 0.17 0.85 0.51 1.19 0.34 0.34 0.74 0.51 1.19 0.51 0.49 0 0.89-0.17 1.21-0.51 0.32-0.34 0.49-0.74 0.49-1.19V1.68 1.59 1.54 1.49 1.44 1.39 1.3H95.94L95.94 1.25 95.94 1.25zM144.91 18.03h-6.79c-0.48 0-0.9 0.17-1.24 0.51s-0.51 0.74-0.51 1.19c0 0.49 0.17 0.9 0.51 1.24 0.34 0.34 0.75 0.51 1.24 0.51h3.4v6.16 0.05c0 0.58-0.04 1.08-0.12 1.5s-0.22 0.87-0.41 1.36c-0.19 0.49-0.47 0.92-0.82 1.31 -0.71 0.81-1.83 1.21-3.35 1.21 -1.42 0-2.49-0.39-3.2-1.16 -0.39-0.39-0.67-0.84-0.85-1.36 -0.18-0.52-0.3-1-0.36-1.45 -0.07-0.45-0.1-0.83-0.1-1.14 0-0.31 0-0.48 0-0.51v-0.05V8.23c0-1.84 0.5-3.23 1.5-4.17 0.84-0.74 1.84-1.12 3.01-1.12 0.26 0 0.64 0.05 1.14 0.14 0.5 0.1 0.99 0.32 1.48 0.68 0.48 0.36 0.91 0.89 1.29 1.6 0.37 0.71 0.56 1.68 0.56 2.91 0 0.45 0.17 0.85 0.51 1.19 0.34 0.34 0.75 0.51 1.24 0.51 0.45 0 0.85-0.17 1.19-0.51 0.34-0.34 0.51-0.74 0.51-1.19 0-1.81-0.28-3.26-0.85-4.34s-1.16-1.9-1.77-2.45c-1.45-1.29-3.22-1.94-5.29-1.94 -0.97 0-1.92 0.17-2.86 0.51 -0.94 0.34-1.78 0.87-2.52 1.58 -0.74 0.71-1.35 1.62-1.82 2.72 -0.47 1.1-0.7 2.39-0.7 3.88v19.02c-0.03 0.16-0.04 0.45-0.02 0.87 0.02 0.42 0.06 0.91 0.12 1.46 0.29 1.94 0.99 3.48 2.09 4.61 1.36 1.55 3.27 2.33 5.72 2.33s4.42-0.78 5.87-2.33c1.03-1.13 1.73-2.59 2.09-4.37 0.1-0.55 0.15-1.03 0.17-1.45 0.02-0.42 0.01-0.69-0.02-0.82v-9.51H144.91zM156.53-0.01c-0.48 0-0.89 0.17-1.21 0.51 -0.32 0.34-0.49 0.74-0.49 1.19V34.38c0 0.45 0.16 0.85 0.49 1.19 0.32 0.34 0.73 0.51 1.21 0.51 0.45 0 0.85-0.17 1.19-0.51 0.34-0.34 0.51-0.73 0.51-1.19V1.68c0-0.45-0.17-0.85-0.51-1.19C157.38 0.16 156.98-0.01 156.53-0.01zM183.63-0.16c-0.49 0-0.89 0.17-1.21 0.51 -0.32 0.34-0.49 0.74-0.49 1.19v24.45l-10.86-25.08 -0.05-0.1c0-0.03-0.01-0.05-0.02-0.05 -0.02 0-0.02-0.02-0.02-0.05l-0.05-0.05V0.62c-0.03 0-0.05-0.02-0.05-0.05V0.52h-0.05V0.47h-0.05c0-0.03-0.02-0.05-0.05-0.05 0-0.03-0.02-0.06-0.05-0.1 -0.03 0-0.05-0.02-0.05-0.05 -0.03 0-0.05-0.02-0.05-0.05h-0.05V0.18h-0.05l-0.05-0.05c-0.03 0-0.05-0.02-0.05-0.05h-0.05c-0.03-0.03-0.06-0.05-0.1-0.05l-0.05-0.05h-0.1l-0.05-0.05c-0.03 0-0.06-0.02-0.1-0.05h-0.1 -0.05 -0.05c0-0.03-0.02-0.05-0.05-0.05h-0.05 -0.1c-0.19 0-0.32 0.02-0.39 0.05h-0.05c-0.07 0.03-0.13 0.05-0.19 0.05s-0.13 0.03-0.19 0.1h-0.05l-0.05 0.05h-0.05l-0.05 0.05h-0.05c0 0.03-0.02 0.05-0.05 0.05l-0.05 0.05 -0.05 0.05h-0.05c0 0.03-0.02 0.05-0.05 0.05 0 0.03-0.01 0.05-0.02 0.05 -0.02 0-0.02 0.02-0.02 0.05 -0.03 0-0.05 0.02-0.05 0.05l-0.05 0.05 -0.05 0.05v0.05c-0.03 0-0.05 0.02-0.05 0.05v0.05h-0.05v0.05c0 0.03-0.01 0.05-0.02 0.05s-0.02 0.02-0.02 0.05c0 0.03-0.02 0.05-0.05 0.05v0.1l-0.05 0.05V1.1v0.05 0.1h-0.05v0.05 0.05 0.05V1.44v0.05 0.1 32.65c0 0.45 0.17 0.85 0.51 1.19 0.34 0.34 0.74 0.51 1.19 0.51 0.48 0 0.89-0.17 1.21-0.51 0.32-0.34 0.48-0.74 0.48-1.19V9.83l10.87 25.03c0.03 0.03 0.05 0.06 0.05 0.07 0 0.02 0.02 0.04 0.05 0.07 0 0.07 0.02 0.11 0.05 0.14l0.05 0.05c0 0.03 0.02 0.05 0.05 0.05 0 0.03 0.02 0.07 0.05 0.1l0.05 0.05 0.05 0.05 0.05 0.05 0.05 0.05c0.03 0 0.05 0.02 0.05 0.05h0.05l0.05 0.05 0.05 0.05c0.03 0.03 0.06 0.05 0.1 0.05 0.03 0 0.06 0.02 0.1 0.05 0.06 0.03 0.1 0.05 0.12 0.05 0.02 0 0.06 0.02 0.12 0.05h0.1c0.03 0.03 0.08 0.05 0.14 0.05h0.1 0.05 0.05 0.05c0.16 0 0.28-0.02 0.34-0.05 0.13 0 0.26-0.03 0.39-0.1l0.05-0.05h0.05V35.69h0.05c0.03 0 0.05-0.02 0.05-0.05h0.05l0.05-0.05c0.03 0 0.05-0.02 0.05-0.05l0.05-0.05h0.05c0-0.03 0.02-0.05 0.05-0.05l0.05-0.05c0-0.03 0.01-0.05 0.03-0.05 0.02 0 0.02-0.01 0.02-0.05 0.03 0 0.05-0.02 0.05-0.05l0.05-0.05v-0.05h0.05v-0.05c0-0.03 0.02-0.05 0.05-0.05v-0.05l0.05-0.05v-0.05c0-0.03 0.02-0.05 0.05-0.05v-0.1l0.05-0.05V34.62v-0.05l0.05-0.05v-0.05 -0.05 -0.05 -0.05 -0.15V1.54c0-0.45-0.17-0.85-0.51-1.19C184.48 0.01 184.08-0.16 183.63-0.16zM209.19 3.43c0.48 0 0.9-0.17 1.24-0.51 0.34-0.34 0.51-0.75 0.51-1.24 0-0.45-0.17-0.85-0.51-1.19s-0.75-0.51-1.24-0.51h-12.85c-0.49 0-0.9 0.17-1.24 0.51 -0.34 0.34-0.51 0.74-0.51 1.19v32.7c0 0.45 0.17 0.85 0.51 1.19 0.34 0.34 0.75 0.51 1.24 0.51h12.86c0.48 0 0.9-0.17 1.24-0.51s0.51-0.74 0.51-1.19c0-0.48-0.17-0.9-0.51-1.24 -0.34-0.34-0.75-0.51-1.24-0.51h-11.16V21.77h8.39c0.49 0 0.89-0.17 1.21-0.51 0.32-0.34 0.48-0.73 0.48-1.19 0-0.48-0.16-0.9-0.48-1.24 -0.32-0.34-0.73-0.51-1.21-0.51h-8.39V3.43H209.19zM48.93 45.99c0.53 0 0.84-0.29 0.84-0.79 0-0.52-0.31-0.84-0.84-0.84H36.23c-0.52 0-0.84 0.31-0.84 0.84v34.5c0 0.49 0.31 0.79 0.84 0.79h12.71c0.53 0 0.84-0.29 0.84-0.79 0-0.52-0.31-0.84-0.84-0.84H37.02V65.39H46c0.52 0 0.84-0.31 0.84-0.84 0-0.49-0.31-0.79-0.84-0.79h-8.98V45.99h11.92V45.99zM72.19 78.86H59.94V45.15c0-0.49-0.31-0.79-0.84-0.79 -0.52 0-0.84 0.3-0.84 0.79v34.55c0 0.49 0.31 0.79 0.84 0.79h13.1c0.52 0 0.84-0.29 0.84-0.79C73.03 79.17 72.72 78.86 72.19 78.86zM119.86 44.36c-0.52 0-0.84 0.3-0.84 0.79v30.56l-13.35-30.87c-0.01-0.02-0.03-0.05-0.04-0.07 -0.01-0.03-0.04-0.06-0.06-0.09 -0.01-0.03-0.03-0.05-0.05-0.08l-0.05-0.05c-0.02-0.02-0.04-0.03-0.07-0.05 -0.04-0.03-0.08-0.06-0.13-0.07 -0.06-0.04-0.14-0.07-0.21-0.07h-0.29c-0.08 0-0.15 0.02-0.21 0.06 -0.06 0.02-0.11 0.05-0.15 0.09 -0.02 0.02-0.03 0.03-0.05 0.05 -0.02 0.01-0.03 0.03-0.05 0.05 -0.04 0.03-0.07 0.07-0.09 0.12l0 0c-0.03 0.03-0.06 0.11-0.07 0.18 -0.04 0.06-0.06 0.17-0.06 0.23v34.55c0 0.5 0.31 0.79 0.84 0.79 0.53 0 0.84-0.3 0.84-0.79V49.14l13.33 30.83c0.01 0.05 0.04 0.1 0.07 0.14 0.02 0.03 0.04 0.06 0.06 0.09l0.1 0.1c0.03 0.03 0.06 0.05 0.09 0.06 0.02 0.02 0.05 0.03 0.07 0.04 0.09 0.07 0.19 0.08 0.3 0.08h0.29c0.07 0 0.14-0.02 0.19-0.07 0.05-0.02 0.09-0.05 0.12-0.09 0.02-0.01 0.04-0.03 0.05-0.05 0.04-0.03 0.07-0.07 0.1-0.12 0-0.01 0.01-0.01 0.01-0.02 0.08-0.05 0.13-0.14 0.13-0.25V79.86c0.03-0.05 0.05-0.1 0.05-0.17V45.15C120.7 44.65 120.39 44.36 119.86 44.36zM144.87 63.42h-5.91c-0.52 0-0.84 0.31-0.84 0.84s0.31 0.84 0.84 0.84h4.59v7.47c0 0.73-0.05 1.36-0.14 1.88 -0.09 0.52-0.26 1.08-0.5 1.68 -0.23 0.58-0.58 1.13-1.04 1.62 -1.01 1.07-2.45 1.62-4.28 1.62 -1.76 0-3.15-0.54-4.13-1.61 -0.46-0.49-0.81-1.05-1.04-1.66 -0.24-0.63-0.4-1.23-0.47-1.77 -0.08-0.55-0.12-1.23-0.12-2.08V52.09c0-1.13 0.17-2.12 0.49-2.94 0.32-0.82 0.76-1.51 1.3-2.05 0.54-0.53 1.15-0.93 1.84-1.18 0.7-0.25 1.41-0.37 2.12-0.37 0.68 0 1.37 0.12 2.05 0.35 0.67 0.23 1.29 0.6 1.82 1.11 0.54 0.51 0.98 1.19 1.32 2.02 0.34 0.84 0.52 1.89 0.52 3.11 0 0.49 0.31 0.79 0.84 0.79 0.49 0 0.79-0.29 0.79-0.79 0-1.5-0.22-2.79-0.66-3.83 -0.44-1.05-1.02-1.91-1.73-2.57 -0.71-0.66-1.51-1.14-2.38-1.43 -0.86-0.28-1.72-0.43-2.56-0.43 -0.91 0-1.81 0.17-2.68 0.51s-1.62 0.8-2.27 1.38c-1.62 1.52-2.44 3.65-2.44 6.33v20.09c0 0.1-0.01 0.37-0.02 0.82 -0.02 0.48 0.04 1.05 0.15 1.7 0.12 0.65 0.32 1.36 0.6 2.08 0.29 0.75 0.73 1.45 1.31 2.1 1.29 1.4 3.09 2.1 5.35 2.1 2.32 0 4.16-0.72 5.45-2.15 0.58-0.61 1.02-1.27 1.31-1.97 0.28-0.68 0.49-1.34 0.63-1.96 0.14-0.63 0.2-1.17 0.2-1.63v-9.55C145.17 63.55 145.04 63.42 144.87 63.42zM156.54 44.36c-0.52 0-0.84 0.3-0.84 0.79v34.55c0 0.49 0.31 0.79 0.84 0.79 0.53 0 0.84-0.29 0.84-0.79V45.15C157.39 44.65 157.07 44.36 156.54 44.36zM184.26 44.36c-0.53 0-0.84 0.3-0.84 0.79v30.56l-13.35-30.87c-0.01-0.02-0.03-0.05-0.04-0.07 -0.01-0.03-0.04-0.06-0.06-0.09 -0.01-0.03-0.03-0.05-0.06-0.08l-0.05-0.05c-0.02-0.02-0.04-0.03-0.07-0.04 -0.04-0.03-0.08-0.06-0.13-0.07 -0.06-0.04-0.14-0.07-0.21-0.07h-0.29c-0.08 0-0.15 0.02-0.21 0.07 -0.06 0.02-0.11 0.05-0.15 0.09 -0.02 0.01-0.04 0.03-0.05 0.05 -0.02 0.01-0.03 0.03-0.05 0.05 -0.04 0.03-0.07 0.07-0.1 0.12l0 0c-0.03 0.03-0.05 0.1-0.07 0.17 -0.04 0.06-0.07 0.16-0.07 0.23v34.55c0 0.49 0.31 0.79 0.84 0.79s0.84-0.29 0.84-0.79V49.14l13.33 30.83c0.01 0.05 0.04 0.1 0.07 0.14 0.01 0.03 0.03 0.06 0.06 0.09l0.1 0.1c0.03 0.03 0.06 0.05 0.09 0.06 0.02 0.02 0.05 0.03 0.07 0.04 0.09 0.07 0.19 0.08 0.3 0.08h0.29c0.07 0 0.14-0.02 0.19-0.07 0.05-0.02 0.08-0.05 0.12-0.09 0.02-0.01 0.03-0.03 0.05-0.05 0.04-0.03 0.07-0.07 0.09-0.11 0.01-0.01 0.01-0.02 0.02-0.02 0.08-0.05 0.13-0.14 0.13-0.25V79.86c0.03-0.05 0.05-0.1 0.05-0.16V45.15C185.1 44.65 184.79 44.36 184.26 44.36zM209.72 63.42h-5.91c-0.52 0-0.84 0.31-0.84 0.84s0.31 0.84 0.84 0.84h4.59v7.47c0 0.73-0.05 1.36-0.14 1.88 -0.1 0.52-0.26 1.08-0.5 1.68 -0.23 0.58-0.58 1.12-1.04 1.61 -1.01 1.07-2.45 1.62-4.28 1.62 -1.76 0-3.15-0.54-4.13-1.61 -0.46-0.49-0.81-1.05-1.04-1.66 -0.23-0.63-0.39-1.22-0.47-1.77s-0.12-1.23-0.12-2.08V52.09c0-1.13 0.17-2.12 0.49-2.94 0.32-0.82 0.76-1.51 1.3-2.05 0.53-0.53 1.15-0.93 1.84-1.18 0.7-0.25 1.41-0.37 2.12-0.37 0.68 0 1.37 0.12 2.05 0.35 0.67 0.23 1.29 0.6 1.82 1.11 0.54 0.51 0.98 1.19 1.32 2.02 0.34 0.84 0.52 1.89 0.52 3.11 0 0.49 0.31 0.79 0.84 0.79 0.49 0 0.79-0.29 0.79-0.79 0-1.5-0.22-2.79-0.66-3.83 -0.44-1.05-1.02-1.91-1.73-2.57 -0.71-0.66-1.51-1.14-2.38-1.43 -0.86-0.28-1.72-0.43-2.56-0.43 -0.91 0-1.81 0.17-2.67 0.51s-1.62 0.8-2.27 1.38c-1.62 1.52-2.44 3.65-2.44 6.33v20.08c0 0.1-0.01 0.37-0.02 0.82 -0.02 0.48 0.03 1.05 0.15 1.7 0.12 0.65 0.32 1.35 0.6 2.08 0.29 0.75 0.73 1.45 1.31 2.1 1.29 1.4 3.09 2.1 5.35 2.1 2.33 0 4.16-0.72 5.45-2.15 0.58-0.61 1.02-1.27 1.31-1.97 0.28-0.68 0.49-1.34 0.63-1.96 0.14-0.62 0.2-1.17 0.2-1.63v-9.55C210.02 63.55 209.88 63.42 209.72 63.42zM91.99 45.75c-0.68-0.58-1.46-1.02-2.32-1.33 -0.86-0.3-1.76-0.46-2.67-0.46 -0.91 0-1.8 0.17-2.65 0.51 -0.84 0.34-1.61 0.8-2.29 1.38 -1.62 1.52-2.44 3.65-2.44 6.33V73.05c0 0.47 0.05 1.04 0.15 1.68 0.1 0.65 0.3 1.36 0.58 2.09 0.29 0.75 0.73 1.44 1.31 2.05 1.29 1.4 3.09 2.1 5.35 2.1 2.29 0 4.13-0.71 5.45-2.1 0.58-0.61 1.02-1.28 1.31-2 0.28-0.7 0.49-1.36 0.63-1.98 0.14-0.63 0.2-1.16 0.2-1.6V52.18C94.59 49.44 93.71 47.27 91.99 45.75zM92.91 72.56c0 0.73-0.05 1.36-0.14 1.88 -0.09 0.52-0.25 1.08-0.47 1.69 -0.21 0.58-0.56 1.12-1.01 1.61 -1.01 1.07-2.45 1.62-4.28 1.62 -1.76 0-3.15-0.53-4.13-1.57 -0.46-0.49-0.8-1.05-1.01-1.67 -0.22-0.65-0.38-1.26-0.48-1.81 -0.09-0.55-0.12-1.22-0.09-2.03V52.19c0-1.13 0.17-2.13 0.49-2.97 0.33-0.84 0.76-1.52 1.28-2.04 0.52-0.52 1.13-0.92 1.82-1.18 0.7-0.26 1.41-0.4 2.12-0.4 0.68 0 1.39 0.12 2.11 0.35 0.71 0.23 1.35 0.61 1.92 1.11 0.57 0.51 1.03 1.19 1.39 2.02 0.36 0.84 0.54 1.89 0.54 3.11L92.91 72.56zM25.86 66.79c-0.33-1.18-0.84-2.27-1.51-3.24 -0.84-1.19-1.82-2.06-2.9-2.58 0.53-0.41 1.01-0.94 1.44-1.58 1.2-1.77 1.81-3.85 1.81-6.18 0-2.33-0.61-4.41-1.81-6.18 -0.58-0.85-1.26-1.52-2.05-1.99 -0.79-0.48-1.6-0.73-2.4-0.73h-6.65c-0.52 0-0.84 0.31-0.84 0.84v34.55c0 0.52 0.31 0.84 0.84 0.84h7.58c0.9 0 1.8-0.27 2.67-0.8 0.86-0.52 1.64-1.28 2.32-2.26 0.67-0.97 1.18-2.06 1.51-3.24 0.33-1.18 0.5-2.43 0.5-3.72C26.36 69.22 26.19 67.97 25.86 66.79zM12.62 45.99h5.81c0.59 0 1.15 0.19 1.69 0.56 0.55 0.39 1.05 0.91 1.49 1.56 0.44 0.65 0.79 1.43 1.06 2.31s0.4 1.82 0.4 2.8c0 0.97-0.13 1.91-0.4 2.8s-0.62 1.67-1.06 2.34c-0.43 0.67-0.93 1.2-1.48 1.58 -0.53 0.37-1.1 0.56-1.69 0.56h-5.81V45.99zM24.28 73.73c-0.3 1.02-0.71 1.94-1.21 2.7 -0.5 0.76-1.08 1.38-1.73 1.82 -0.63 0.44-1.29 0.65-1.98 0.65h-6.73V62.11h6.74c0.68 0 1.35 0.22 1.98 0.66 0.65 0.45 1.23 1.06 1.73 1.82 0.5 0.77 0.91 1.67 1.21 2.68 0.3 1.01 0.45 2.1 0.45 3.24C24.73 71.62 24.58 72.7 24.28 73.73zM50.25 3.43c0.49 0 0.9-0.17 1.24-0.51C51.83 2.58 52 2.17 52 1.68c0-0.45-0.17-0.85-0.51-1.19 -0.34-0.34-0.75-0.51-1.24-0.51H37.4c-0.48 0-0.9 0.17-1.24 0.51 -0.34 0.34-0.51 0.74-0.51 1.19v32.7c0 0.45 0.17 0.85 0.51 1.19 0.34 0.34 0.75 0.51 1.24 0.51h12.86c0.49 0 0.9-0.17 1.24-0.51C51.83 35.23 52 34.83 52 34.38c0-0.48-0.17-0.9-0.51-1.24 -0.34-0.34-0.75-0.51-1.24-0.51H39.1V21.77h8.39c0.49 0 0.89-0.17 1.21-0.51 0.32-0.34 0.49-0.73 0.49-1.19 0-0.48-0.16-0.9-0.48-1.24 -0.32-0.34-0.73-0.51-1.21-0.51h-8.39V3.43H50.25zM28.4 33.7l-5.63-12.85c0.94-0.55 1.81-1.44 2.62-2.67 0.65-1.03 1.15-2.18 1.5-3.44 0.36-1.26 0.53-2.56 0.53-3.88 0-1.29-0.18-2.57-0.53-3.83 -0.36-1.26-0.86-2.41-1.5-3.44 -0.74-1.13-1.59-2.01-2.55-2.64 -0.95-0.63-1.95-0.95-2.98-0.95h-7.23c-0.45 0-0.85 0.17-1.19 0.51 -0.34 0.34-0.51 0.75-0.51 1.24v32.65c0 0.49 0.17 0.89 0.51 1.21s0.74 0.49 1.19 0.49c0.49 0 0.9-0.16 1.24-0.48 0.34-0.32 0.51-0.73 0.51-1.21V21.72h5.04l5.82 13.34c0.16 0.36 0.38 0.62 0.66 0.78 0.27 0.16 0.59 0.24 0.95 0.24 0.1 0 0.2-0.01 0.32-0.02 0.11-0.02 0.23-0.06 0.36-0.12 0.45-0.16 0.76-0.46 0.92-0.9C28.61 34.6 28.6 34.16 28.4 33.7zM21.2 17.79c-0.47 0.36-0.91 0.53-1.33 0.53h-5.48V3.43h5.48c0.42 0 0.87 0.17 1.33 0.51 0.47 0.34 0.9 0.83 1.29 1.48 0.49 0.74 0.86 1.59 1.14 2.55 0.27 0.95 0.41 1.92 0.41 2.89 0 1-0.14 1.98-0.41 2.94 -0.28 0.95-0.65 1.8-1.14 2.55C22.1 16.95 21.67 17.43 21.2 17.79zM120.76 34.58l-6.79-33.52c0-0.13-0.02-0.21-0.05-0.24V0.76 0.71c-0.03-0.06-0.07-0.12-0.12-0.17s-0.09-0.1-0.12-0.17l-0.05-0.1V0.23h-0.05V0.18h-0.05V0.13h-0.05c-0.06-0.06-0.13-0.11-0.19-0.15s-0.16-0.06-0.29-0.1v-0.05h-0.05c-0.06-0.03-0.14-0.05-0.22-0.05 -0.08 0-0.15-0.02-0.22-0.05h-0.05 -0.1 -0.05c-0.06 0.03-0.14 0.05-0.22 0.05s-0.15 0.02-0.22 0.05h-0.05v0.05c-0.1 0.03-0.18 0.06-0.24 0.1 -0.06 0.03-0.13 0.08-0.19 0.15h-0.05v0.05h-0.05v0.05h-0.05v0.05h-0.05v0.1c-0.1 0.07-0.18 0.18-0.24 0.34v0.05 0.05c-0.03 0.03-0.07 0.11-0.1 0.24l-6.74 33.52c-0.1 0.45-0.02 0.87 0.22 1.24 0.24 0.37 0.57 0.61 1 0.7h0.29c0.39 0 0.74-0.12 1.04-0.36s0.49-0.54 0.56-0.9l1.26-6.31h7.86l1.31 6.31c0.06 0.36 0.25 0.66 0.56 0.9 0.31 0.24 0.64 0.36 0.99 0.36h0.29c0.42-0.1 0.76-0.33 1.02-0.7C120.77 35.44 120.85 35.03 120.76 34.58zM109.12 25.79l3.25-16.4 3.35 16.4H109.12z"/>
</svg>