<svg xmlns="http://www.w3.org/2000/svg" version="1.1" x="0" y="0" width="166" height="45" viewBox="0 0 166 45" enable-background="new 0 0 166 45" xml:space="preserve">
  <path fill="#FFFFFF" d="M121.32 4.25C119.48 2.1 116.23 1 111.93 1H99.04c-0.88 0-1.63 0.6-1.77 1.47l-5.21 33.16C91.96 36.29 92.46 37 93.12 37h6.61c0.62 0 1.14-0.59 1.24-1.2l1.48-9.33C102.59 25.6 103.34 25 104.22 25h4.08c8.49 0 13.39-4.2 14.67-12.34C123.54 9.1 122.98 6.21 121.32 4.25zM113.41 13.18c-0.7 4.63-4.23 4.82-7.65 4.82h-1.95l1.36-8.86C105.26 8.61 105.71 8 106.24 8h0.89c2.33 0 4.52 0.13 5.66 1.46C113.46 10.25 113.67 11.56 113.41 13.18zM29.41 4.25C27.57 2.1 24.33 1 20.02 1H7.13C6.25 1 5.5 1.6 5.36 2.47L0.15 35.63C0.05 36.29 0.55 37 1.21 37h6.15c0.88 0 1.63-0.78 1.77-1.65l1.41-8.88C10.68 25.6 11.43 25 12.31 25h4.07c8.49 0 13.39-4.2 14.67-12.34C31.63 9.1 31.07 6.21 29.41 4.25zM21.5 13.18C20.8 17.81 17.27 18 13.85 18h-1.94l1.36-8.86C13.35 8.61 13.8 8 14.33 8h0.9c2.32 0 4.52 0.13 5.65 1.46C21.56 10.25 21.76 11.56 21.5 13.18zM58.53 13h-6.17c-0.53 0-0.98 0.31-1.06 0.83l-0.27 1.68 -0.43-0.64c-1.34-1.94-4.32-2.6-7.29-2.6 -6.82 0-12.64 5.16-13.77 12.41 -0.59 3.61 0.25 7.07 2.3 9.48 1.88 2.22 4.57 3.14 7.77 3.14 5.5 0 8.54-3.53 8.54-3.53l-0.27 1.86C47.77 36.27 48.27 37 48.93 37h5.56c0.88 0 1.63-0.78 1.77-1.66l3.34-21.11C59.7 13.58 59.19 13 58.53 13zM49.93 24.85c-0.6 3.52-3.39 5.9-6.96 5.9 -1.79 0-3.22-0.58-4.14-1.67 -0.91-1.08-1.26-2.62-0.97-4.33 0.56-3.5 3.4-5.94 6.92-5.94 1.75 0 3.17 0.58 4.11 1.68C49.83 21.59 50.2 23.14 49.93 24.85zM150.44 13h-6.17c-0.53 0-0.98 0.31-1.06 0.83l-0.27 1.68 -0.43-0.64c-1.34-1.94-4.31-2.6-7.29-2.6 -6.82 0-12.64 5.16-13.77 12.41 -0.59 3.61 0.25 7.07 2.3 9.48 1.88 2.22 4.57 3.14 7.77 3.14 5.5 0 8.54-3.53 8.54-3.53l-0.28 1.86C139.68 36.27 140.18 37 140.84 37h5.56c0.88 0 1.63-0.78 1.77-1.66l3.34-21.11C151.6 13.58 151.1 13 150.44 13zM141.84 24.85c-0.6 3.52-3.39 5.9-6.96 5.9 -1.79 0-3.22-0.58-4.14-1.67 -0.91-1.08-1.25-2.62-0.96-4.33 0.56-3.5 3.4-5.94 6.91-5.94 1.75 0 3.18 0.58 4.11 1.68C141.74 21.59 142.11 23.14 141.84 24.85zM92.28 14.59L71.65 44.26C71.32 44.74 70.77 45 70.18 45h-6.19c-0.87 0-1.38-0.93-0.87-1.64l7.42-10.01L63.7 13.34C63.47 12.64 62.98 13 63.72 13h6.1c0.79 0 1.49 0.46 1.72 1.22l3.63 12.05 8.56-12.56C84.05 13.22 84.6 13 85.19 13h6.2C92.26 13 92.77 13.88 92.28 14.59zM165.79 2.27l-5.21 33.07c-0.14 0.87-0.89 1.66-1.77 1.66h-5.32c-0.66 0-1.16-0.71-1.06-1.36l5.29-33.77C157.79 1.34 158.24 1 158.77 1h5.95C165.39 1 165.89 1.62 165.79 2.27z"/>
  <path fill="#003087" d="M21.5 11.98c-0.71 4.63-4.24 4.63-7.66 4.63h-1.94l1.36-8.63c0.08-0.52 0.53-0.91 1.06-0.91h0.9c2.32 0 4.52 0 5.65 1.33C21.56 9.19 21.76 10.36 21.5 11.98M20.02-0.08H7.13c-0.88 0-1.63 0.64-1.77 1.51L0.15 34.47c-0.1 0.65 0.4 1.24 1.06 1.24h6.15c0.88 0 1.63-0.64 1.77-1.51l1.41-8.92c0.14-0.87 0.89-1.51 1.77-1.51h4.07c8.49 0 13.39-4.11 14.67-12.25 0.58-3.56 0.02-6.35-1.64-8.31C27.57 1.06 24.33-0.08 20.02-0.08M49.93 23.85c-0.6 3.52-3.39 5.9-6.96 5.9 -1.79 0-3.22-0.58-4.14-1.67 -0.91-1.08-1.26-2.62-0.97-4.33 0.56-3.5 3.4-5.94 6.92-5.94 1.75 0 3.17 0.58 4.11 1.68C49.83 20.59 50.2 22.14 49.93 23.85M58.53 11.84h-6.17c-0.53 0-0.98 0.39-1.06 0.91l-0.27 1.72 -0.43-0.62c-1.34-1.94-4.32-2.59-7.29-2.59 -6.82 0-12.64 5.17-13.77 12.41 -0.59 3.61 0.25 7.07 2.3 9.48 1.88 2.22 4.57 3.14 7.77 3.14 5.5 0 8.54-3.53 8.54-3.53l-0.27 1.72c-0.1 0.65 0.4 1.24 1.06 1.24h5.56c0.88 0 1.63-0.64 1.77-1.51l3.34-21.12C59.7 12.43 59.19 11.84 58.53 11.84M91.4 11.84h-6.2c-0.59 0-1.14 0.3-1.48 0.79l-8.55 12.6 -3.62-12.11c-0.23-0.76-0.93-1.28-1.71-1.28h-6.1c-0.73 0-1.25 0.73-1.02 1.42l6.83 20.05 -6.42 9.06c-0.5 0.71 0 1.7 0.88 1.7h6.2c0.59 0 1.14-0.29 1.47-0.77l20.63-29.77C92.77 12.81 92.26 11.84 91.4 11.84"/>
  <path fill="#009CDE" d="M113.41 11.98c-0.7 4.63-4.23 4.63-7.65 4.63h-1.95l1.36-8.63c0.08-0.52 0.54-0.91 1.06-0.91h0.89c2.33 0 4.52 0 5.66 1.33C113.46 9.19 113.67 10.36 113.41 11.98M111.93-0.08H99.04c-0.88 0-1.63 0.64-1.77 1.51l-5.21 33.04c-0.1 0.65 0.4 1.24 1.06 1.24h6.61c0.62 0 1.14-0.45 1.24-1.05l1.48-9.37c0.14-0.87 0.89-1.51 1.77-1.51h4.08c8.49 0 13.39-4.11 14.67-12.25 0.57-3.56 0.02-6.35-1.64-8.31C119.48 1.06 116.23-0.08 111.93-0.08M141.84 23.85c-0.6 3.52-3.39 5.9-6.96 5.9 -1.79 0-3.22-0.58-4.14-1.67 -0.91-1.08-1.25-2.62-0.96-4.33 0.56-3.5 3.4-5.94 6.91-5.94 1.75 0 3.18 0.58 4.11 1.68C141.74 20.59 142.11 22.14 141.84 23.85M150.44 11.84h-6.17c-0.53 0-0.98 0.39-1.06 0.91l-0.27 1.72 -0.43-0.62c-1.34-1.94-4.31-2.59-7.29-2.59 -6.82 0-12.64 5.17-13.77 12.41 -0.59 3.61 0.25 7.07 2.3 9.48 1.88 2.22 4.57 3.14 7.77 3.14 5.5 0 8.54-3.53 8.54-3.53l-0.28 1.72c-0.1 0.65 0.4 1.24 1.06 1.24h5.56c0.88 0 1.63-0.64 1.77-1.51l3.34-21.12C151.6 12.43 151.1 11.84 150.44 11.84M157.71 0.82l-5.28 33.65c-0.1 0.65 0.4 1.24 1.06 1.24h5.32c0.88 0 1.63-0.64 1.77-1.51l5.22-33.04c0.11-0.65-0.4-1.24-1.06-1.24h-5.95C158.24-0.08 157.79 0.3 157.71 0.82"/>
</svg>
