<svg xmlns="http://www.w3.org/2000/svg" xmlns:xlink="http://www.w3.org/1999/xlink" version="1.0" id="Layer_1" x="0px" y="0px" width="60px" height="60px" viewBox="0 0 60 60" enable-background="new 0 0 60 60" xml:space="preserve">
  <path fill="#eeeef1" d="M59.218 55.475L44.278 40.528c-0.115-0.115-0.24-0.212-0.37-0.302 3.437-4.246 5.501-9.646 5.501-15.521 0-13.625-11.082-24.715-24.705-24.715 -13.616 0-24.699 11.09-24.699 24.715 0 13.625 11.08 24.712 24.699 24.712 5.873 0 11.271-2.064 15.515-5.5 0.09 0.129 0.188 0.255 0.303 0.37l14.943 14.945c0.515 0.518 1.195 0.777 1.872 0.777 0.682 0 1.361-0.262 1.881-0.777C60.255 58.195 60.255 56.515 59.218 55.475zM24.704 44.107c-10.688 0-19.391-8.705-19.391-19.402 0-10.7 8.702-19.405 19.391-19.405 10.699 0 19.397 8.705 19.397 19.405C44.102 35.402 35.399 44.107 24.704 44.107z"/>
</svg>