<svg xmlns="http://www.w3.org/2000/svg" xmlns:xlink="http://www.w3.org/1999/xlink" version="1.0" id="Layer_1" x="0px" y="0px" width="60px" height="60px" viewBox="0 0 60 60" enable-background="new 0 0 60 60" xml:space="preserve">
  <path fill="#232326" d="M30-0.007c-16.546 0-30.007 13.462-30.007 30.008 0 16.545 13.461 30.006 30.007 30.006s30.007-13.459 30.007-30.006S46.546-0.007 30-0.007zM30 57.974c-15.424 0-27.972-12.55-27.972-27.973C2.028 14.577 14.576 2.028 30 2.028s27.972 12.549 27.972 27.973C57.972 45.424 45.424 57.974 30 57.974zM36.147 34.214c-0.046-0.045-0.104-0.067-0.154-0.103 1.324-1.629 2.121-3.703 2.121-5.961 0-5.221-4.248-9.472-9.471-9.472 -5.221 0-9.469 4.251-9.469 9.472 0 5.222 4.247 9.47 9.469 9.47 2.258 0 4.332-0.797 5.961-2.12 0.035 0.051 0.057 0.108 0.103 0.154l5.729 5.728c0.198 0.199 0.458 0.298 0.718 0.298 0.262 0 0.522-0.101 0.721-0.298 0.398-0.397 0.398-1.041 0-1.44L36.147 34.214zM28.644 35.585c-4.098 0-7.434-3.336-7.434-7.435 0-4.101 3.336-7.437 7.434-7.437 4.102 0 7.436 3.336 7.436 7.437C36.079 32.249 32.743 35.585 28.644 35.585z"/>
</svg>