<svg xmlns="http://www.w3.org/2000/svg" fill="black" width="219" height="20" viewBox="0 0 219 20">
  <path d="M28.45 0.27c-0.26 0-0.48 0.09-0.65 0.27 -0.17 0.18-0.26 0.4-0.26 0.64v17.62c0 0.25 0.09 0.46 0.26 0.64 0.17 0.18 0.39 0.27 0.65 0.27 0.24 0 0.46-0.09 0.64-0.27 0.18-0.18 0.27-0.4 0.27-0.64V1.18c0-0.24-0.09-0.46-0.27-0.64C28.91 0.36 28.69 0.27 28.45 0.27zM45.73 0.95c0-0.05-0.02-0.11-0.05-0.18l-0.03-0.03 -0.03-0.03V0.69L45.6 0.66c0-0.02-0.01-0.03-0.03-0.03 -0.04-0.07-0.07-0.11-0.1-0.13l-0.03-0.03h-0.03c0-0.02-0.01-0.03-0.03-0.03l-0.03-0.03h-0.03V0.4h-0.03V0.37h-0.05l-0.03-0.03h-0.03L45.18 0.32h-0.05V0.29h-0.03 -0.03 -0.03 -0.03V0.27H45h-0.03 -0.03 -0.05 -0.05 -0.05 -0.03 -0.03 -0.03 -0.03c-0.02 0-0.03 0.01-0.03 0.03h-0.03 -0.03c-0.04 0.02-0.06 0.03-0.09 0.03s-0.05 0.01-0.06 0.03c-0.02 0-0.03 0.01-0.03 0.03H44.4h-0.03v0.03c-0.02 0-0.03 0.01-0.03 0.03h-0.03c-0.02 0-0.03 0.01-0.03 0.03 -0.04 0.02-0.09 0.06-0.16 0.13v0.03c-0.02 0-0.03 0.01-0.03 0.03L44.09 0.66v0.03h-0.03v0.03l-0.03 0.03v0.03l-3.94 7.74 -3.94-7.74 -0.03-0.03V0.71l-0.03-0.03c0-0.02-0.01-0.03-0.03-0.03V0.63l-0.03-0.03V0.58c-0.02 0-0.03-0.01-0.03-0.03 -0.04-0.02-0.08-0.05-0.13-0.1 -0.02-0.02-0.04-0.03-0.05-0.03l-0.03-0.03c-0.02 0-0.03-0.01-0.03-0.03 -0.02 0-0.04-0.01-0.05-0.03 -0.07-0.04-0.14-0.05-0.21-0.05l-0.03-0.03h-0.03 -0.03 -0.03 -0.03 -0.03 -0.03 -0.03 -0.03 -0.05 -0.05 -0.03c-0.02 0-0.03 0.01-0.03 0.03H35.11h-0.03 -0.03L35.03 0.32h-0.03c-0.02 0-0.03 0-0.03 0.01 0 0.01-0.01 0.01-0.03 0.01 -0.02 0-0.03 0.01-0.03 0.03h-0.03 -0.03v0.03H34.85c-0.02 0-0.03 0.01-0.03 0.03h-0.03V0.45h-0.03c-0.02 0-0.03 0.01-0.03 0.03l-0.03 0.03c-0.04 0.02-0.06 0.04-0.07 0.05 -0.01 0.02-0.03 0.04-0.06 0.08 0 0.02-0.01 0.03-0.03 0.03v0.03l-0.03 0.03v0.03l-0.03 0.03c-0.04 0.1-0.06 0.17-0.08 0.21v0.05 0.03c0 0.02-0.01 0.03-0.03 0.03v0.03 0.03 0.05 17.62c0 0.25 0.09 0.46 0.27 0.64 0.18 0.18 0.41 0.27 0.67 0.27 0.24 0 0.46-0.09 0.64-0.27 0.18-0.18 0.27-0.4 0.27-0.64V5.03l2.95 5.83c0.09 0.25 0.24 0.42 0.47 0.52 0.07 0.04 0.14 0.06 0.2 0.08 0.06 0.02 0.13 0.03 0.22 0.03 0.1 0 0.24-0.03 0.42-0.1 0.21-0.1 0.36-0.28 0.44-0.52l2.98-5.83v13.78c0 0.25 0.09 0.46 0.27 0.64s0.4 0.27 0.64 0.27c0.26 0 0.48-0.09 0.65-0.27 0.17-0.18 0.26-0.4 0.26-0.64V1.18 1.13 1.1 1.08 1.05 1.02 0.97h-0.03L45.73 0.95 45.73 0.95zM72.08 9.99h-3.65c-0.26 0-0.48 0.09-0.67 0.27s-0.27 0.4-0.27 0.64c0 0.26 0.09 0.48 0.27 0.67 0.18 0.18 0.41 0.27 0.67 0.27h1.83v3.32 0.03c0 0.31-0.02 0.58-0.06 0.81s-0.12 0.47-0.22 0.73 -0.25 0.5-0.44 0.71c-0.38 0.44-0.98 0.65-1.8 0.65 -0.77 0-1.34-0.21-1.72-0.63 -0.21-0.21-0.36-0.45-0.46-0.73 -0.09-0.28-0.16-0.54-0.19-0.78 -0.04-0.24-0.05-0.45-0.05-0.61 0-0.16 0-0.26 0-0.27V15.04 4.71c0-0.99 0.27-1.74 0.81-2.25 0.45-0.4 0.99-0.6 1.62-0.6 0.14 0 0.34 0.03 0.61 0.08 0.27 0.05 0.54 0.17 0.8 0.37 0.26 0.19 0.49 0.48 0.69 0.86 0.2 0.38 0.3 0.91 0.3 1.57 0 0.25 0.09 0.46 0.27 0.64 0.18 0.18 0.4 0.27 0.67 0.27 0.24 0 0.46-0.09 0.64-0.27 0.18-0.18 0.27-0.4 0.27-0.64 0-0.98-0.15-1.76-0.46-2.34 -0.3-0.58-0.62-1.02-0.95-1.32 -0.78-0.7-1.73-1.05-2.84-1.05 -0.52 0-1.04 0.09-1.54 0.27 -0.5 0.18-0.96 0.47-1.36 0.85 -0.4 0.38-0.73 0.87-0.98 1.46 -0.25 0.59-0.38 1.29-0.38 2.09v10.25c-0.02 0.09-0.02 0.25-0.01 0.47 0.01 0.23 0.03 0.49 0.07 0.79 0.16 1.05 0.53 1.87 1.12 2.48 0.73 0.84 1.76 1.26 3.08 1.26s2.38-0.42 3.16-1.26c0.56-0.61 0.93-1.39 1.12-2.35 0.05-0.3 0.08-0.56 0.09-0.78s0-0.37-0.01-0.44L72.08 9.99 72.08 9.99zM78.33 0.27c-0.26 0-0.48 0.09-0.65 0.27 -0.17 0.18-0.26 0.4-0.26 0.64v17.62c0 0.25 0.09 0.46 0.26 0.64 0.17 0.18 0.39 0.27 0.65 0.27 0.24 0 0.46-0.09 0.64-0.27 0.18-0.18 0.27-0.4 0.27-0.64V1.18c0-0.24-0.09-0.46-0.27-0.64C78.78 0.36 78.57 0.27 78.33 0.27zM92.91 0.19c-0.26 0-0.48 0.09-0.65 0.27 -0.17 0.18-0.26 0.4-0.26 0.64v13.18L86.15 0.76 86.12 0.71c0-0.02 0-0.03-0.01-0.03 -0.01 0-0.01-0.01-0.01-0.03l-0.03-0.03V0.61c-0.02 0-0.03-0.01-0.03-0.03V0.56h-0.03V0.53H85.99c0-0.02-0.01-0.03-0.03-0.03 0-0.02-0.01-0.04-0.03-0.05 -0.02 0-0.03-0.01-0.03-0.03 -0.02 0-0.03-0.01-0.03-0.03h-0.03V0.37h-0.03l-0.03-0.03c-0.02 0-0.03-0.01-0.03-0.03h-0.03c-0.02-0.02-0.04-0.03-0.05-0.03l-0.03-0.03h-0.05l-0.03-0.03c-0.02 0-0.04-0.01-0.05-0.03h-0.05 -0.03 -0.03c0-0.02-0.01-0.03-0.03-0.03H85.39h-0.05c-0.1 0-0.17 0.01-0.21 0.03h-0.03c-0.04 0.02-0.07 0.03-0.1 0.03s-0.07 0.02-0.1 0.05h-0.03L84.84 0.32h-0.03L84.79 0.35h-0.03c0 0.02-0.01 0.03-0.03 0.03l-0.03 0.03 -0.03 0.03H84.66c0 0.02-0.01 0.03-0.03 0.03 0 0.02 0 0.03-0.01 0.03 -0.01 0-0.01 0.01-0.01 0.03 -0.02 0-0.03 0.01-0.03 0.03l-0.03 0.03L84.53 0.58v0.03c-0.02 0-0.03 0.01-0.03 0.03v0.03h-0.03v0.03c0 0.02 0 0.03-0.01 0.03 -0.01 0-0.01 0.01-0.01 0.03 0 0.02-0.01 0.03-0.03 0.03v0.05L84.4 0.84v0.03 0.03 0.05h-0.03v0.03 0.03 0.03 0.03 0.03 0.05 17.6c0 0.24 0.09 0.46 0.27 0.64 0.18 0.18 0.4 0.28 0.64 0.28 0.26 0 0.48-0.09 0.65-0.28 0.17-0.18 0.26-0.4 0.26-0.64V5.57l5.85 13.49c0.02 0.02 0.03 0.03 0.03 0.04 0 0.01 0.01 0.02 0.03 0.04 0 0.04 0.01 0.06 0.03 0.08l0.03 0.03c0 0.02 0.01 0.03 0.03 0.03 0 0.02 0.01 0.04 0.03 0.05l0.03 0.03 0.03 0.03 0.03 0.03 0.03 0.03c0.02 0 0.03 0.01 0.03 0.03h0.03l0.03 0.03 0.03 0.03c0.02 0.02 0.04 0.03 0.05 0.03s0.04 0.01 0.05 0.03c0.04 0.02 0.06 0.03 0.07 0.03 0.01 0 0.03 0.01 0.07 0.03h0.05c0.02 0.02 0.04 0.03 0.08 0.03h0.05 0.03 0.03 0.03c0.09 0 0.15-0.01 0.18-0.02 0.07 0 0.14-0.02 0.21-0.05l0.03-0.03h0.03v-0.03h0.03c0.02 0 0.03-0.01 0.03-0.03h0.03l0.03-0.03c0.02 0 0.03-0.01 0.03-0.02l0.03-0.03h0.03c0-0.02 0.01-0.03 0.03-0.03l0.03-0.03c0-0.02 0-0.03 0.01-0.03 0.01 0 0.01-0.01 0.01-0.02 0.02 0 0.03-0.01 0.03-0.03l0.03-0.03v-0.02h0.03v-0.03c0-0.02 0.01-0.03 0.03-0.03v-0.02l0.03-0.03v-0.03c0-0.02 0.01-0.03 0.03-0.03v-0.05l0.03-0.03v-0.05 -0.03l0.03-0.03v-0.03 -0.03 -0.03 -0.02 -0.08V1.1c0-0.24-0.09-0.46-0.27-0.64C93.36 0.28 93.15 0.19 92.91 0.19zM106.66 2.12c0.26 0 0.48-0.09 0.67-0.27 0.18-0.18 0.27-0.41 0.27-0.67 0-0.24-0.09-0.46-0.27-0.64 -0.18-0.18-0.4-0.27-0.67-0.27h-6.92c-0.26 0-0.48 0.09-0.67 0.27 -0.18 0.18-0.27 0.4-0.27 0.64v17.62c0 0.24 0.09 0.46 0.27 0.64 0.18 0.18 0.41 0.27 0.67 0.27h6.92c0.26 0 0.48-0.09 0.67-0.27 0.18-0.18 0.27-0.4 0.27-0.64 0-0.26-0.09-0.48-0.27-0.67 -0.18-0.18-0.4-0.27-0.67-0.27h-6v-5.86h4.51c0.26 0 0.48-0.09 0.65-0.27 0.17-0.18 0.26-0.4 0.26-0.64 0-0.26-0.09-0.48-0.26-0.67 -0.17-0.18-0.39-0.27-0.65-0.27h-4.51V2.12H106.66zM133.48 1.14c0.28 0 0.45-0.16 0.45-0.42 0-0.28-0.17-0.45-0.45-0.45h-6.84c-0.28 0-0.45 0.17-0.45 0.45v18.6c0 0.27 0.17 0.43 0.45 0.43h6.84c0.28 0 0.45-0.16 0.45-0.43 0-0.28-0.17-0.45-0.45-0.45h-6.41v-7.26h4.83c0.28 0 0.45-0.17 0.45-0.45 0-0.27-0.17-0.42-0.45-0.42h-4.83V1.14L133.48 1.14 133.48 1.14zM146.57 18.86h-6.59V0.69c0-0.27-0.17-0.43-0.45-0.43s-0.45 0.16-0.45 0.43v18.62c0 0.27 0.17 0.43 0.45 0.43h7.05c0.28 0 0.45-0.16 0.45-0.43C147.02 19.03 146.85 18.86 146.57 18.86zM172.21 0.26c-0.28 0-0.45 0.16-0.45 0.43v16.47L164.58 0.52c-0.01-0.01-0.01-0.03-0.02-0.04 -0.01-0.02-0.02-0.04-0.03-0.05 -0.01-0.01-0.02-0.03-0.03-0.04l-0.03-0.03c-0.01-0.01-0.02-0.02-0.04-0.02 -0.02-0.02-0.04-0.03-0.07-0.04 -0.03-0.02-0.07-0.04-0.11-0.04h-0.16c-0.04 0-0.08 0.01-0.11 0.04 -0.03 0.01-0.06 0.03-0.08 0.05 -0.01 0.01-0.02 0.02-0.03 0.03 -0.01 0.01-0.02 0.02-0.03 0.03 -0.02 0.02-0.04 0.04-0.05 0.06l0 0c-0.02 0.02-0.03 0.06-0.04 0.1 -0.02 0.03-0.04 0.09-0.04 0.13v18.62c0 0.27 0.17 0.43 0.45 0.43 0.28 0 0.45-0.16 0.45-0.43V2.84l7.17 16.62c0.01 0.03 0.02 0.05 0.04 0.08 0.01 0.02 0.02 0.03 0.03 0.05l0.05 0.05c0.01 0.01 0.03 0.02 0.05 0.03 0.01 0.01 0.03 0.02 0.04 0.02 0.05 0.04 0.1 0.04 0.16 0.04h0.16c0.04 0 0.07-0.01 0.1-0.04 0.02-0.01 0.05-0.03 0.06-0.05 0.01-0.01 0.02-0.02 0.03-0.03 0.02-0.02 0.04-0.04 0.05-0.06 0 0 0.01-0.01 0.01-0.01 0.04-0.03 0.07-0.08 0.07-0.13v-0.02c0.02-0.02 0.03-0.06 0.03-0.09V0.69C172.66 0.42 172.49 0.26 172.21 0.26zM185.67 10.54h-3.18c-0.28 0-0.45 0.17-0.45 0.45s0.17 0.45 0.45 0.45h2.47v4.03c0 0.39-0.03 0.73-0.08 1.01 -0.05 0.28-0.14 0.58-0.27 0.91 -0.12 0.31-0.31 0.61-0.56 0.87 -0.54 0.58-1.32 0.87-2.3 0.87 -0.95 0-1.69-0.29-2.22-0.87 -0.25-0.26-0.43-0.56-0.56-0.89 -0.13-0.34-0.21-0.66-0.25-0.95 -0.04-0.3-0.06-0.66-0.06-1.12V4.43c0-0.61 0.09-1.14 0.26-1.59 0.18-0.44 0.41-0.81 0.7-1.1 0.29-0.29 0.62-0.5 0.99-0.63 0.38-0.13 0.76-0.2 1.14-0.2 0.37 0 0.74 0.06 1.1 0.19 0.36 0.12 0.69 0.32 0.98 0.6 0.29 0.27 0.53 0.64 0.71 1.09 0.18 0.45 0.28 1.02 0.28 1.68 0 0.27 0.17 0.43 0.45 0.43 0.27 0 0.43-0.16 0.43-0.43 0-0.81-0.12-1.5-0.35-2.06 -0.23-0.56-0.55-1.03-0.93-1.39 -0.38-0.36-0.81-0.62-1.28-0.77C182.67 0.08 182.2 0 181.75 0c-0.49 0-0.97 0.09-1.44 0.28 -0.46 0.18-0.87 0.43-1.22 0.74 -0.87 0.82-1.31 1.97-1.31 3.41v10.83c0 0.05 0 0.2-0.01 0.44 -0.01 0.26 0.02 0.56 0.08 0.92 0.06 0.35 0.17 0.73 0.32 1.12 0.16 0.4 0.39 0.78 0.7 1.13 0.7 0.75 1.66 1.13 2.88 1.13 1.25 0 2.24-0.39 2.93-1.16 0.31-0.33 0.55-0.69 0.7-1.06 0.15-0.37 0.27-0.72 0.34-1.05 0.07-0.34 0.11-0.63 0.11-0.88v-5.15C185.83 10.61 185.76 10.54 185.67 10.54zM191.38 0.26c-0.28 0-0.45 0.16-0.45 0.43v18.62c0 0.27 0.17 0.43 0.45 0.43 0.28 0 0.45-0.16 0.45-0.43V0.69C191.83 0.42 191.66 0.26 191.38 0.26zM205.43 0.26c-0.28 0-0.45 0.16-0.45 0.43v16.47L197.8 0.52c-0.01-0.01-0.01-0.03-0.02-0.04 -0.01-0.02-0.02-0.04-0.03-0.05 -0.01-0.01-0.02-0.03-0.03-0.04l-0.03-0.03c-0.01-0.01-0.02-0.02-0.04-0.02 -0.02-0.02-0.04-0.03-0.07-0.04 -0.03-0.02-0.07-0.04-0.11-0.04h-0.16c-0.04 0-0.08 0.01-0.11 0.04 -0.03 0.01-0.06 0.03-0.08 0.05 -0.01 0.01-0.02 0.02-0.03 0.03 -0.01 0.01-0.02 0.02-0.03 0.03 -0.02 0.02-0.04 0.04-0.05 0.07l0 0c-0.02 0.02-0.03 0.06-0.04 0.09 -0.02 0.03-0.04 0.09-0.04 0.13v18.62c0 0.27 0.17 0.43 0.45 0.43s0.45-0.16 0.45-0.43V2.84l7.17 16.62c0.01 0.03 0.02 0.06 0.04 0.08 0.01 0.02 0.02 0.03 0.03 0.05l0.06 0.06c0.01 0.02 0.03 0.02 0.05 0.03 0.01 0.01 0.03 0.02 0.04 0.02 0.05 0.04 0.1 0.05 0.16 0.05h0.16c0.04 0 0.07-0.01 0.1-0.04 0.02-0.01 0.05-0.03 0.06-0.05 0.01-0.01 0.02-0.02 0.03-0.03 0.02-0.02 0.04-0.04 0.05-0.06 0 0 0.01-0.01 0.01-0.01 0.04-0.03 0.07-0.08 0.07-0.13v-0.02c0.02-0.02 0.03-0.06 0.03-0.09V0.69C205.88 0.42 205.71 0.26 205.43 0.26zM218.84 10.54h-3.18c-0.28 0-0.45 0.17-0.45 0.45s0.17 0.45 0.45 0.45h2.47v4.03c0 0.39-0.02 0.73-0.07 1.01 -0.05 0.28-0.14 0.59-0.27 0.91 -0.12 0.31-0.31 0.61-0.56 0.87 -0.54 0.58-1.32 0.87-2.3 0.87 -0.95 0-1.69-0.29-2.22-0.87 -0.25-0.26-0.43-0.56-0.56-0.89 -0.13-0.34-0.21-0.66-0.25-0.95 -0.04-0.29-0.06-0.66-0.06-1.12V4.43c0-0.61 0.09-1.14 0.27-1.59 0.18-0.44 0.41-0.81 0.7-1.1 0.29-0.29 0.62-0.5 0.99-0.63 0.38-0.13 0.76-0.2 1.14-0.2 0.37 0 0.74 0.06 1.1 0.19 0.36 0.12 0.69 0.32 0.98 0.6 0.29 0.27 0.53 0.64 0.71 1.09 0.19 0.45 0.28 1.02 0.28 1.68 0 0.27 0.17 0.43 0.45 0.43 0.27 0 0.43-0.16 0.43-0.42 0-0.81-0.12-1.5-0.35-2.06 -0.23-0.56-0.55-1.03-0.93-1.39 -0.38-0.36-0.81-0.62-1.28-0.77C215.84 0.08 215.37 0 214.92 0c-0.49 0-0.97 0.09-1.44 0.27 -0.46 0.18-0.87 0.43-1.22 0.74 -0.87 0.82-1.31 1.97-1.31 3.41v10.83c0 0.05 0 0.2-0.01 0.44 -0.01 0.26 0.02 0.56 0.08 0.92 0.06 0.35 0.17 0.73 0.32 1.12 0.16 0.4 0.39 0.78 0.7 1.13 0.69 0.75 1.66 1.13 2.88 1.13 1.25 0 2.24-0.39 2.93-1.16 0.31-0.33 0.55-0.69 0.7-1.06 0.15-0.37 0.27-0.72 0.34-1.05 0.07-0.34 0.11-0.63 0.11-0.88v-5.15C219 10.61 218.93 10.54 218.84 10.54zM157.22 1.01c-0.36-0.31-0.78-0.55-1.25-0.71 -0.46-0.16-0.94-0.25-1.43-0.25 -0.49 0-0.97 0.09-1.43 0.28 -0.45 0.18-0.86 0.43-1.23 0.74 -0.87 0.82-1.31 1.97-1.31 3.41v11.25c0 0.25 0.03 0.56 0.08 0.91 0.05 0.35 0.16 0.73 0.31 1.13 0.16 0.4 0.39 0.78 0.7 1.11 0.69 0.75 1.66 1.13 2.88 1.13 1.23 0 2.22-0.38 2.93-1.13 0.31-0.33 0.55-0.69 0.7-1.08 0.15-0.38 0.27-0.73 0.34-1.07 0.07-0.34 0.11-0.62 0.11-0.86V4.48C158.61 3 158.15 1.83 157.22 1.01zM157.71 15.47c0 0.39-0.03 0.73-0.08 1.01 -0.05 0.28-0.14 0.58-0.25 0.91 -0.12 0.31-0.3 0.6-0.55 0.87 -0.54 0.58-1.32 0.87-2.3 0.87 -0.95 0-1.69-0.28-2.22-0.84 -0.25-0.26-0.43-0.57-0.54-0.9 -0.12-0.35-0.2-0.68-0.26-0.98 -0.05-0.29-0.07-0.66-0.05-1.09V4.48c0-0.61 0.09-1.15 0.27-1.6 0.18-0.45 0.41-0.82 0.69-1.1 0.28-0.28 0.61-0.49 0.98-0.63 0.38-0.14 0.76-0.21 1.14-0.21 0.37 0 0.75 0.06 1.13 0.19 0.38 0.12 0.73 0.33 1.03 0.6 0.31 0.27 0.56 0.64 0.75 1.09 0.19 0.45 0.29 1.02 0.29 1.67L157.71 15.47zM120.78 12.35c-0.18-0.64-0.45-1.22-0.81-1.75 -0.45-0.64-0.98-1.11-1.56-1.39 0.29-0.22 0.55-0.51 0.77-0.85 0.65-0.95 0.97-2.07 0.97-3.33 0-1.26-0.33-2.38-0.97-3.33 -0.31-0.46-0.68-0.82-1.1-1.07 -0.43-0.26-0.86-0.39-1.29-0.39h-3.57c-0.28 0-0.45 0.17-0.45 0.45v18.62c0 0.28 0.17 0.45 0.45 0.45h4.08c0.48 0 0.97-0.15 1.44-0.43 0.46-0.28 0.88-0.69 1.25-1.22 0.36-0.52 0.63-1.11 0.81-1.75 0.18-0.63 0.27-1.31 0.27-2.01S120.96 12.99 120.78 12.35zM113.66 1.14h3.13c0.31 0 0.62 0.1 0.91 0.3 0.3 0.21 0.57 0.49 0.8 0.84 0.24 0.35 0.43 0.77 0.57 1.25 0.14 0.48 0.22 0.98 0.22 1.51s-0.07 1.03-0.22 1.51c-0.14 0.48-0.34 0.9-0.57 1.26 -0.23 0.36-0.5 0.65-0.8 0.85 -0.28 0.2-0.59 0.3-0.91 0.3h-3.12V1.14zM119.93 16.09c-0.16 0.55-0.38 1.04-0.65 1.46 -0.27 0.41-0.58 0.74-0.93 0.98 -0.34 0.24-0.7 0.35-1.06 0.35h-3.62V9.83h3.62c0.37 0 0.73 0.12 1.07 0.35 0.35 0.24 0.66 0.57 0.93 0.98 0.27 0.42 0.49 0.9 0.65 1.45 0.16 0.55 0.24 1.13 0.24 1.75C120.17 14.96 120.09 15.54 119.93 16.09zM21.72 2.12c0.26 0 0.48-0.09 0.67-0.27 0.18-0.18 0.27-0.41 0.27-0.67 0-0.24-0.09-0.46-0.27-0.64 -0.18-0.18-0.4-0.27-0.67-0.27h-6.92c-0.26 0-0.48 0.09-0.67 0.27 -0.18 0.18-0.27 0.4-0.27 0.64v17.62c0 0.24 0.09 0.46 0.27 0.64 0.18 0.18 0.41 0.27 0.67 0.27h6.92c0.26 0 0.48-0.09 0.67-0.27 0.18-0.18 0.27-0.4 0.27-0.64 0-0.26-0.09-0.48-0.27-0.67 -0.18-0.18-0.4-0.27-0.67-0.27H15.72v-5.86h4.52c0.26 0 0.48-0.09 0.65-0.27 0.17-0.18 0.26-0.4 0.26-0.64 0-0.26-0.09-0.48-0.26-0.67 -0.17-0.18-0.39-0.27-0.65-0.27H15.72V2.12H21.72zM9.4 18.44l-3.03-6.93c0.5-0.3 0.97-0.77 1.41-1.44 0.35-0.56 0.62-1.18 0.81-1.86 0.19-0.68 0.29-1.38 0.29-2.09 0-0.7-0.1-1.39-0.29-2.06 -0.19-0.68-0.46-1.3-0.81-1.86 -0.4-0.61-0.86-1.08-1.37-1.42s-1.05-0.51-1.6-0.51H0.91c-0.24 0-0.46 0.09-0.64 0.27C0.09 0.73 0 0.95 0 1.21v17.6c0 0.26 0.09 0.48 0.27 0.65 0.18 0.17 0.4 0.26 0.64 0.26 0.26 0 0.48-0.09 0.67-0.26 0.18-0.17 0.27-0.39 0.27-0.65v-6.82h2.71l3.13 7.19c0.09 0.19 0.21 0.33 0.35 0.42 0.15 0.09 0.32 0.13 0.51 0.13 0.05 0 0.11 0 0.17-0.01 0.06-0.01 0.13-0.03 0.2-0.06 0.24-0.09 0.41-0.25 0.5-0.48C9.51 18.92 9.5 18.68 9.4 18.44zM5.52 9.86c-0.25 0.19-0.49 0.29-0.72 0.29h-2.95V2.12h2.95c0.23 0 0.47 0.09 0.72 0.27 0.25 0.18 0.48 0.45 0.69 0.8 0.26 0.4 0.47 0.86 0.61 1.37 0.15 0.51 0.22 1.03 0.22 1.56 0 0.54-0.07 1.07-0.22 1.58C6.68 8.22 6.47 8.68 6.21 9.08 6 9.41 5.77 9.67 5.52 9.86zM59.08 18.91L55.43 0.84c0-0.07-0.01-0.11-0.03-0.13V0.69 0.66c-0.02-0.04-0.04-0.06-0.06-0.09 -0.03-0.03-0.05-0.06-0.06-0.09l-0.03-0.05V0.4h-0.03V0.37h-0.03V0.35h-0.03c-0.04-0.04-0.07-0.06-0.1-0.08 -0.04-0.02-0.09-0.04-0.16-0.05V0.19h-0.03c-0.04-0.02-0.07-0.03-0.12-0.03 -0.04 0-0.08-0.01-0.12-0.03H54.62h-0.05 -0.03c-0.04 0.02-0.07 0.03-0.12 0.03 -0.04 0-0.08 0.01-0.12 0.03H54.28v0.03c-0.05 0.02-0.1 0.04-0.13 0.05 -0.04 0.02-0.07 0.04-0.1 0.08h-0.03v0.03h-0.03v0.03h-0.03v0.03h-0.03v0.05c-0.05 0.04-0.1 0.1-0.13 0.18v0.03 0.03c-0.02 0.02-0.04 0.06-0.05 0.13L50.13 18.91c-0.05 0.24-0.01 0.47 0.12 0.67s0.31 0.33 0.54 0.38h0.16c0.21 0 0.4-0.06 0.56-0.2s0.27-0.29 0.3-0.48l0.68-3.4h4.23l0.71 3.4c0.04 0.19 0.13 0.35 0.3 0.48 0.17 0.13 0.34 0.2 0.54 0.2h0.16c0.23-0.05 0.41-0.18 0.55-0.38C59.09 19.38 59.13 19.15 59.08 18.91zM52.82 14.18l1.75-8.84 1.8 8.84H52.82z"/>
</svg>
