<svg xmlns="http://www.w3.org/2000/svg" xmlns:xlink="http://www.w3.org/1999/xlink" version="1.0" id="Layer_1" x="0px" y="0px" width="60px" height="60px" viewBox="0 0 60 60" enable-background="new 0 0 60 60" xml:space="preserve">
  <path fill="#ffb400" d="M30-0.007C13.454-0.007-0.007 13.454-0.007 30c0 16.545 13.461 30.007 30.007 30.007 16.544 0 30.007-13.462 30.007-30.007C60.007 13.454 46.544-0.007 30-0.007zM30 57.972C14.577 57.972 2.028 45.423 2.028 30 2.028 14.576 14.577 2.028 30 2.028c15.424 0 27.972 12.548 27.972 27.972C57.972 45.423 45.424 57.972 30 57.972zM26.953 18.898c-0.397-0.397-1.043-0.397-1.44 0 -0.396 0.396-0.396 1.043 0 1.44l9.22 9.229 -9.22 9.229c-0.397 0.397-0.397 1.044 0 1.44 0.198 0.198 0.458 0.298 0.72 0.298 0.261 0 0.521-0.1 0.721-0.3l9.937-9.948c0.398-0.397 0.398-1.042 0-1.439L26.953 18.898z"/>
</svg>