<svg xmlns="http://www.w3.org/2000/svg" xmlns:xlink="http://www.w3.org/1999/xlink" version="1.0" id="Layer_1" x="0px" y="0px" width="60px" height="60px" viewBox="0 0 60 60" enable-background="new 0 0 60 60" xml:space="preserve">
  <path fill="#33d1dc" d="M30.001-0.007c-16.548 0-30.008 13.462-30.008 30.008 0 16.545 13.46 30.006 30.008 30.006 16.544 0 30.006-13.459 30.006-30.006S46.546-0.007 30.001-0.007zM30.001 57.974c-15.424 0-27.973-12.55-27.973-27.973 0-15.424 12.549-27.973 27.973-27.973 15.422 0 27.971 12.549 27.971 27.973C57.972 45.424 45.423 57.974 30.001 57.974zM16.997 22.997h27v-2h-27V22.997zM16.997 30.997h27v-2h-27V30.997zM16.997 38.997h27v-2h-27V38.997z"/>
</svg>
