<svg xmlns="http://www.w3.org/2000/svg" xmlns:xlink="http://www.w3.org/1999/xlink" version="1.1" id="Layer_2" x="0" y="0" width="60" height="60" viewBox="0 0 60 60" enable-background="new 0 0 60 60" xml:space="preserve">
  <path fill="#232326" d="M24.14 20.52c-0.24-0.14-0.53-0.14-0.77 0s-0.38 0.4-0.38 0.67v17.61c0 0.28 0.15 0.54 0.38 0.67 0.12 0.07 0.25 0.1 0.38 0.1 0.13 0 0.27-0.04 0.38-0.1l15.06-8.81c0.24-0.14 0.38-0.39 0.38-0.67s-0.15-0.53-0.38-0.67L24.14 20.52zM51.21 8.79C45.55 3.12 38.01 0 30 0S14.45 3.12 8.79 8.79C3.12 14.45 0 21.99 0 30s3.12 15.55 8.79 21.21C14.45 56.88 21.99 60 30 60s15.55-3.12 21.21-8.79C56.88 45.55 60 38.01 60 30S56.88 14.45 51.21 8.79zM49.48 49.48C44.27 54.68 37.36 57.54 30 57.54s-14.27-2.86-19.48-8.07C5.32 44.27 2.46 37.36 2.46 30c0-7.36 2.86-14.27 8.07-19.48C15.73 5.32 22.64 2.46 30 2.46s14.27 2.87 19.48 8.07S57.54 22.64 57.54 30C57.54 37.36 54.68 44.27 49.48 49.48z"/>
</svg>