<svg xmlns="http://www.w3.org/2000/svg" xmlns:xlink="http://www.w3.org/1999/xlink" version="1.1" id="Layer_3" x="0" y="0" width="60" height="60" viewBox="0 0 60 60" enable-background="new 0 0 60 60" xml:space="preserve">
  <path fill="#232326" d="M51.21 51.21C45.55 56.88 38.01 60 30 60s-15.55-3.12-21.21-8.79C3.12 45.55 0 38.01 0 30c0-8.01 3.12-15.55 8.79-21.21C14.45 3.12 21.99 0 30 0s15.55 3.12 21.21 8.79C56.88 14.45 60 21.99 60 30 60 38.01 56.88 45.55 51.21 51.21zM49.48 10.53C44.27 5.32 37.36 2.46 30 2.46s-14.27 2.87-19.48 8.07C5.32 15.73 2.46 22.64 2.46 30c0 7.36 2.86 14.27 8.07 19.48 5.2 5.2 12.12 8.07 19.48 8.07s14.27-2.86 19.48-8.07c5.2-5.2 8.07-12.12 8.07-19.48C57.54 22.64 54.68 15.73 49.48 10.53zM18.5 34.81h23v-2.96h-23V34.81zM18.5 28.17h23v-3h-23V28.17zM18.5 18.5v3h23v-3H18.5zM19 41.5h12v-3H19V41.5z"/>
</svg>