<svg xmlns="http://www.w3.org/2000/svg" xmlns:xlink="http://www.w3.org/1999/xlink" version="1.0" id="Layer_1_copy" x="0px" y="0px" width="841.89px" height="595.28px" viewBox="0 0 841.89 595.28" enable-background="new 0 0 841.89 595.28" xml:space="preserve">
  <g>
    <path fill="none" d="M450.285 294.817c1.038-0.72 1.978-1.72 2.793-2.973 0.825-1.268 1.5-2.752 2.004-4.411 0.503-1.659 0.758-3.43 0.758-5.265 0-1.834-0.255-3.605-0.758-5.266 -0.505-1.658-1.178-3.125-2.001-4.359 -0.814-1.221-1.755-2.208-2.796-2.933 -1.004-0.696-2.072-1.049-3.175-1.049h-10.936v27.305h10.936C448.216 295.866 449.284 295.513 450.285 294.817z"/>
    <path fill="none" d="M586.838 270.58c-1.071-0.955-2.288-1.659-3.617-2.093 -1.349-0.439-2.684-0.663-3.967-0.663 -1.332 0-2.674 0.251-3.987 0.747 -1.299 0.491-2.454 1.236-3.434 2.217 -0.982 0.982-1.792 2.279-2.404 3.854 -0.616 1.583-0.928 3.465-0.928 5.593v37.826c-0.061 1.512-0.001 2.787 0.176 3.816 0.178 1.042 0.48 2.188 0.898 3.409 0.4 1.177 1.04 2.237 1.901 3.155 1.842 1.957 4.458 2.949 7.777 2.949 3.442 0 6.152-1.023 8.055-3.043 0.861-0.918 1.503-1.937 1.906-3.027 0.416-1.132 0.717-2.2 0.894-3.174 0.178-0.978 0.268-2.166 0.268-3.533l0.091-38.38c0-2.301-0.341-4.27-1.012-5.851C588.785 272.812 587.905 271.533 586.838 270.58z"/>
    <path fill="none" d="M455.84 303.599c-0.937-1.432-2.031-2.587-3.253-3.432 -1.188-0.819-2.442-1.234-3.728-1.234h-12.685v31.63h12.685c1.288 0 2.543-0.414 3.728-1.233 1.221-0.842 2.315-1.997 3.253-3.434 0.945-1.448 1.712-3.162 2.277-5.094 0.564-1.934 0.852-3.971 0.852-6.054 0-2.141-0.286-4.192-0.852-6.098C457.553 306.749 456.786 305.05 455.84 303.599z"/>
    <path fill="none" d="M62.954 285.972c0-1.827-0.26-3.639-0.776-5.436 -0.519-1.796-1.233-3.395-2.147-4.796 -0.73-1.218-1.539-2.147-2.421-2.787 -0.884-0.64-1.722-0.959-2.513-0.959H44.772v28.049h10.324c0.791 0 1.629-0.334 2.513-1.005 0.882-0.67 1.69-1.583 2.421-2.741 0.914-1.4 1.629-2.999 2.147-4.796C62.694 289.704 62.954 287.86 62.954 285.972z"/>
    <polygon fill="none" points="223.184 314.111 235.609 314.111 229.305 283.231 "/>
    <path d="M60.578 304.792c1.766-1.035 3.411-2.709 4.934-5.024 1.218-1.948 2.161-4.111 2.833-6.487 0.669-2.375 1.005-4.811 1.005-7.309 0-2.435-0.335-4.842-1.005-7.217 -0.671-2.375-1.615-4.537-2.833-6.487 -1.402-2.131-3-3.792-4.796-4.979 -1.797-1.188-3.67-1.782-5.619-1.782H41.483c-0.854 0-1.599 0.32-2.239 0.959 -0.639 0.64-0.959 1.416-0.959 2.33v61.487c0 0.914 0.32 1.676 0.959 2.284 0.64 0.608 1.385 0.914 2.239 0.914 0.914 0 1.69-0.306 2.33-0.914s0.959-1.37 0.959-2.284v-23.846h9.501l10.964 25.125c0.304 0.671 0.715 1.158 1.233 1.462 0.517 0.304 1.11 0.457 1.781 0.457 0.183 0 0.38-0.016 0.594-0.046 0.212-0.031 0.441-0.107 0.685-0.229 0.852-0.304 1.431-0.868 1.736-1.69 0.304-0.822 0.274-1.658-0.091-2.512L60.578 304.792zM57.609 299.037c-0.884 0.671-1.722 1.005-2.513 1.005H44.772v-28.049h10.324c0.791 0 1.629 0.32 2.513 0.959 0.882 0.64 1.69 1.569 2.421 2.787 0.914 1.402 1.629 3 2.147 4.796 0.517 1.797 0.776 3.609 0.776 5.436 0 1.889-0.26 3.732-0.776 5.528 -0.519 1.797-1.233 3.396-2.147 4.796C59.299 297.454 58.491 298.367 57.609 299.037z"/>
    <path d="M114.33 271.993c0.914 0 1.69-0.32 2.33-0.959 0.639-0.64 0.959-1.417 0.959-2.33 0-0.852-0.32-1.599-0.959-2.238 -0.64-0.64-1.417-0.959-2.33-0.959H90.119c-0.914 0-1.69 0.32-2.33 0.959s-0.959 1.386-0.959 2.238v61.578c0 0.854 0.319 1.6 0.959 2.238 0.64 0.64 1.417 0.96 2.33 0.96h24.211c0.914 0 1.69-0.32 2.33-0.96 0.639-0.639 0.959-1.385 0.959-2.238 0-0.913-0.32-1.689-0.959-2.329 -0.64-0.64-1.417-0.96-2.33-0.96H93.316v-20.465h15.806c0.914 0 1.674-0.32 2.284-0.96 0.608-0.639 0.914-1.384 0.914-2.238 0-0.913-0.306-1.689-0.914-2.33 -0.61-0.639-1.371-0.958-2.284-0.958H93.316v-28.049H114.33z"/>
    <path d="M137.88 265.506c-0.914 0-1.676 0.32-2.284 0.959 -0.61 0.64-0.914 1.386-0.914 2.238v61.578c0 0.854 0.304 1.6 0.914 2.238 0.608 0.64 1.371 0.96 2.284 0.96 0.852 0 1.599-0.32 2.238-0.96 0.64-0.639 0.959-1.385 0.959-2.238v-61.578c0-0.852-0.32-1.599-0.959-2.238S138.732 265.506 137.88 265.506z"/>
    <path d="M198.372 267.882c0-0.183-0.062-0.396-0.183-0.639l-0.091-0.092 -0.091-0.091v-0.091l-0.091-0.091c0-0.06-0.032-0.091-0.092-0.091 -0.123-0.243-0.244-0.396-0.365-0.457l-0.091-0.091h-0.091c0-0.06-0.032-0.091-0.091-0.091l-0.091-0.091h-0.092v-0.091h-0.091v-0.091h-0.183l-0.091-0.091h-0.091l-0.091-0.091h-0.183v-0.091h-0.092 -0.091 -0.091 -0.091v-0.092h-0.091 -0.091 -0.091 -0.183 -0.183 -0.183 -0.091H194.9h-0.091 -0.091c-0.062 0-0.091 0.032-0.091 0.092h-0.092 -0.091c-0.123 0.061-0.229 0.091-0.32 0.091s-0.168 0.031-0.228 0.091c-0.062 0-0.092 0.031-0.092 0.091h-0.091 -0.091v0.091c-0.061 0-0.091 0.031-0.091 0.091h-0.091c-0.062 0-0.091 0.031-0.091 0.091 -0.123 0.062-0.306 0.214-0.548 0.457v0.091c-0.061 0-0.091 0.031-0.091 0.091l-0.091 0.091v0.091h-0.091v0.091l-0.091 0.091v0.092l-13.796 27.043 -13.796-27.043 -0.091-0.092v-0.091l-0.091-0.091c0-0.06-0.031-0.091-0.091-0.091v-0.091l-0.091-0.091v-0.091c-0.062 0-0.091-0.03-0.091-0.091 -0.123-0.06-0.274-0.183-0.457-0.366 -0.062-0.06-0.123-0.091-0.183-0.091l-0.091-0.091c-0.062 0-0.091-0.03-0.091-0.091 -0.062 0-0.123-0.03-0.183-0.091 -0.244-0.122-0.488-0.183-0.731-0.183l-0.091-0.092h-0.091 -0.091 -0.091 -0.091 -0.091 -0.091 -0.091 -0.092 -0.183 -0.183 -0.091c-0.062 0-0.091 0.032-0.091 0.092h-0.091 -0.091 -0.092l-0.091 0.091h-0.091c-0.062 0-0.091 0.016-0.091 0.045 0 0.032-0.031 0.046-0.091 0.046 -0.062 0-0.091 0.031-0.091 0.091h-0.091 -0.091v0.091h-0.092c-0.061 0-0.091 0.031-0.091 0.091h-0.091v0.091H160c-0.062 0-0.091 0.032-0.091 0.091l-0.091 0.091c-0.123 0.062-0.198 0.123-0.229 0.183 -0.031 0.061-0.107 0.152-0.229 0.274 0 0.062-0.031 0.091-0.091 0.091v0.091l-0.091 0.091v0.091l-0.091 0.092c-0.123 0.365-0.214 0.609-0.274 0.73v0.183 0.091c0 0.061-0.032 0.091-0.091 0.091v0.091 0.091 0.183 61.578c0 0.854 0.319 1.6 0.959 2.238 0.64 0.64 1.417 0.96 2.33 0.96 0.852 0 1.599-0.32 2.238-0.96 0.64-0.639 0.959-1.385 0.959-2.238v-48.147l10.324 20.373c0.304 0.854 0.853 1.462 1.645 1.827 0.243 0.123 0.471 0.215 0.686 0.274 0.212 0.062 0.471 0.092 0.776 0.092 0.365 0 0.852-0.122 1.462-0.366 0.731-0.365 1.248-0.973 1.553-1.827l10.415-20.373v48.147c0 0.854 0.32 1.6 0.959 2.238 0.64 0.64 1.385 0.96 2.238 0.96 0.914 0 1.675-0.32 2.284-0.96 0.608-0.639 0.914-1.385 0.914-2.238v-61.578 -0.183 -0.091 -0.091 -0.091 -0.091 -0.183h-0.091V267.882z"/>
    <path d="M232.32 267.517c0-0.243-0.031-0.396-0.091-0.457v-0.091 -0.091c-0.062-0.121-0.137-0.229-0.229-0.32s-0.168-0.197-0.229-0.32l-0.091-0.183v-0.091h-0.091v-0.091h-0.091v-0.091h-0.091c-0.123-0.122-0.244-0.213-0.365-0.274 -0.123-0.06-0.306-0.121-0.548-0.183v-0.091h-0.091c-0.123-0.06-0.26-0.091-0.411-0.091 -0.153 0-0.29-0.03-0.411-0.091h-0.091 -0.183 -0.091c-0.123 0.062-0.26 0.091-0.411 0.091 -0.152 0-0.29 0.031-0.411 0.091H228.3v0.091c-0.183 0.062-0.335 0.123-0.457 0.183 -0.123 0.062-0.244 0.153-0.366 0.274h-0.091v0.091h-0.091v0.091h-0.091v0.091h-0.091v0.183c-0.183 0.123-0.335 0.335-0.457 0.64v0.091 0.091c-0.061 0.062-0.123 0.214-0.183 0.457l-12.7 63.132c-0.183 0.854-0.045 1.63 0.411 2.329 0.457 0.7 1.081 1.143 1.873 1.325h0.548c0.731 0 1.385-0.229 1.964-0.686 0.578-0.457 0.928-1.02 1.051-1.69l2.375-11.877h14.801l2.467 11.877c0.121 0.671 0.471 1.233 1.05 1.69 0.578 0.457 1.202 0.686 1.873 0.686h0.548c0.791-0.183 1.43-0.625 1.918-1.325 0.487-0.699 0.64-1.476 0.457-2.329L232.32 267.517zM223.184 314.111l6.121-30.88 6.304 30.88H223.184z"/>
    <path d="M290.594 299.494h-12.791c-0.914 0-1.69 0.319-2.33 0.959 -0.64 0.639-0.959 1.386-0.959 2.237 0 0.914 0.32 1.69 0.959 2.33 0.639 0.64 1.416 0.959 2.33 0.959h6.396v11.604 0.092c0 1.096-0.077 2.041-0.229 2.832 -0.153 0.792-0.411 1.645-0.776 2.558 -0.366 0.914-0.884 1.736-1.553 2.467 -1.341 1.523-3.442 2.284-6.304 2.284 -2.681 0-4.691-0.73-6.03-2.192 -0.731-0.73-1.265-1.583-1.599-2.559 -0.335-0.974-0.564-1.887-0.685-2.74 -0.123-0.853-0.183-1.567-0.183-2.147 0-0.578 0-0.897 0-0.959v-0.092 -36.088c0-3.472 0.943-6.09 2.832-7.857 1.583-1.4 3.472-2.102 5.665-2.102 0.487 0 1.202 0.091 2.147 0.274 0.944 0.183 1.873 0.609 2.787 1.279 0.914 0.671 1.72 1.676 2.421 3.015 0.699 1.34 1.05 3.167 1.05 5.482 0 0.854 0.32 1.599 0.959 2.238s1.416 0.959 2.33 0.959c0.853 0 1.599-0.319 2.239-0.959 0.639-0.64 0.959-1.385 0.959-2.238 0-3.411-0.534-6.136-1.599-8.177 -1.066-2.04-2.179-3.578-3.335-4.614 -2.741-2.436-6.061-3.655-9.958-3.655 -1.827 0-3.625 0.32-5.391 0.959 -1.767 0.64-3.35 1.63-4.75 2.969 -1.402 1.341-2.544 3.046-3.426 5.116 -0.884 2.072-1.325 4.508-1.325 7.309v35.814c-0.062 0.305-0.077 0.854-0.046 1.645 0.03 0.792 0.106 1.705 0.229 2.74 0.548 3.655 1.857 6.549 3.929 8.68 2.558 2.924 6.151 4.386 10.781 4.386 4.628 0 8.314-1.462 11.055-4.386 1.948-2.131 3.257-4.872 3.928-8.223 0.183-1.035 0.289-1.948 0.32-2.741 0.03-0.79 0.014-1.309-0.045-1.553V299.494z"/>
    <path d="M312.475 265.506c-0.914 0-1.676 0.32-2.284 0.959 -0.61 0.64-0.914 1.386-0.914 2.238v61.578c0 0.854 0.304 1.6 0.914 2.238 0.608 0.64 1.371 0.96 2.284 0.96 0.852 0 1.599-0.32 2.238-0.96 0.64-0.639 0.959-1.385 0.959-2.238v-61.578c0-0.852-0.32-1.599-0.959-2.238S313.327 265.506 312.475 265.506z"/>
    <path d="M363.513 265.232c-0.914 0-1.676 0.32-2.284 0.959 -0.609 0.64-0.914 1.386-0.914 2.238v46.046l-20.465-47.234 -0.091-0.183c0-0.06-0.016-0.091-0.045-0.091 -0.032 0-0.046-0.03-0.046-0.091l-0.091-0.091v-0.091c-0.062 0-0.091-0.03-0.091-0.091v-0.091h-0.091v-0.091h-0.091c0-0.06-0.032-0.092-0.092-0.092 0-0.06-0.031-0.121-0.091-0.183 -0.061 0-0.091-0.03-0.091-0.091 -0.062 0-0.091-0.03-0.091-0.091h-0.091v-0.091h-0.091l-0.091-0.091c-0.062 0-0.091-0.03-0.091-0.091h-0.091c-0.062-0.06-0.123-0.091-0.183-0.091l-0.091-0.092h-0.183l-0.091-0.091c-0.062 0-0.123-0.03-0.183-0.091h-0.183 -0.091 -0.091c0-0.06-0.031-0.091-0.091-0.091h-0.091 -0.183c-0.366 0-0.61 0.031-0.731 0.091h-0.091c-0.123 0.062-0.244 0.091-0.366 0.091 -0.123 0-0.244 0.062-0.365 0.183h-0.091l-0.091 0.091h-0.091l-0.092 0.091h-0.091c0 0.061-0.031 0.091-0.091 0.091l-0.091 0.091 -0.091 0.091h-0.091c0 0.062-0.031 0.091-0.091 0.091 0 0.062-0.016 0.091-0.046 0.091 -0.031 0-0.045 0.032-0.045 0.091 -0.062 0-0.092 0.032-0.092 0.092l-0.091 0.091 -0.091 0.091v0.091c-0.061 0-0.091 0.031-0.091 0.091v0.091h-0.091v0.091c0 0.062-0.016 0.091-0.046 0.091 -0.031 0-0.045 0.032-0.045 0.091 0 0.062-0.031 0.092-0.091 0.092v0.183l-0.091 0.091v0.091 0.091 0.183h-0.091v0.091 0.092 0.091 0.091 0.091 0.183 61.487c0 0.854 0.319 1.599 0.959 2.238s1.385 0.959 2.239 0.959c0.914 0 1.674-0.319 2.284-0.959 0.608-0.64 0.914-1.385 0.914-2.238v-45.956l20.465 47.143c0.06 0.062 0.092 0.107 0.092 0.137 0 0.031 0.03 0.077 0.091 0.138 0 0.122 0.03 0.214 0.091 0.273l0.091 0.092c0 0.062 0.03 0.091 0.091 0.091 0 0.062 0.03 0.123 0.091 0.183l0.091 0.092 0.091 0.092 0.091 0.091 0.092 0.092c0.06 0 0.091 0.031 0.091 0.091h0.091l0.091 0.092 0.091 0.091c0.06 0.062 0.122 0.092 0.183 0.092 0.06 0 0.122 0.031 0.183 0.091 0.122 0.062 0.197 0.092 0.229 0.092 0.03 0 0.106 0.03 0.229 0.092h0.183c0.06 0.06 0.151 0.091 0.274 0.091h0.183 0.091 0.091 0.091c0.304 0 0.517-0.031 0.64-0.091 0.243 0 0.487-0.062 0.731-0.184l0.091-0.091h0.091v-0.092h0.091c0.06 0 0.091-0.029 0.091-0.091h0.091l0.091-0.092c0.06 0 0.092-0.029 0.092-0.091l0.091-0.092h0.091c0-0.06 0.03-0.091 0.091-0.091l0.091-0.092c0-0.06 0.014-0.092 0.046-0.092 0.03 0 0.045-0.029 0.045-0.091 0.06 0 0.091-0.03 0.091-0.092l0.091-0.091v-0.092h0.091v-0.091c0-0.061 0.03-0.092 0.092-0.092v-0.091l0.091-0.092v-0.092c0-0.06 0.03-0.091 0.091-0.091v-0.183l0.091-0.092v-0.183 -0.091l0.091-0.092v-0.092 -0.091 -0.092 -0.091 -0.274V268.43c0-0.852-0.32-1.599-0.959-2.238C365.112 265.552 364.366 265.232 363.513 265.232z"/>
    <path d="M411.658 271.993c0.914 0 1.69-0.32 2.33-0.959 0.639-0.64 0.959-1.417 0.959-2.33 0-0.852-0.32-1.599-0.959-2.238 -0.64-0.64-1.417-0.959-2.33-0.959h-24.211c-0.914 0-1.69 0.32-2.33 0.959s-0.959 1.386-0.959 2.238v61.578c0 0.854 0.319 1.6 0.959 2.238 0.64 0.64 1.417 0.96 2.33 0.96h24.211c0.914 0 1.69-0.32 2.33-0.96 0.639-0.639 0.959-1.385 0.959-2.238 0-0.913-0.32-1.689-0.959-2.329 -0.64-0.64-1.417-0.96-2.33-0.96h-21.013v-20.465h15.806c0.914 0 1.674-0.32 2.284-0.96 0.608-0.639 0.914-1.384 0.914-2.238 0-0.913-0.306-1.689-0.914-2.33 -0.61-0.639-1.371-0.958-2.284-0.958h-15.806v-28.049H411.658z"/>
    <path d="M458.25 301.627c-1.591-2.247-3.425-3.875-5.463-4.854 1.002-0.776 1.91-1.771 2.708-2.967 2.264-3.332 3.411-7.248 3.411-11.638 0-4.39-1.147-8.306-3.411-11.64 -1.085-1.592-2.382-2.855-3.855-3.754 -1.496-0.91-3.021-1.371-4.529-1.371h-12.516c-0.989 0-1.58 0.59-1.58 1.579v65.068c0 0.989 0.591 1.58 1.58 1.58h14.265c1.694 0 3.389-0.508 5.035-1.509 1.625-0.988 3.092-2.421 4.359-4.259 1.257-1.823 2.212-3.877 2.84-6.104 0.624-2.221 0.942-4.579 0.942-7.011s-0.318-4.79-0.943-7.011C460.466 305.513 459.511 303.458 458.25 301.627zM436.175 268.561h10.936c1.103 0 2.171 0.353 3.175 1.049 1.041 0.725 1.981 1.711 2.796 2.933 0.823 1.234 1.496 2.701 2.001 4.359 0.503 1.661 0.758 3.432 0.758 5.266 0 1.834-0.255 3.606-0.758 5.265 -0.504 1.659-1.179 3.143-2.004 4.411 -0.815 1.253-1.755 2.253-2.793 2.973 -1.001 0.696-2.069 1.049-3.175 1.049h-10.936V268.561zM458.117 320.802c-0.565 1.932-1.332 3.646-2.277 5.094 -0.938 1.437-2.032 2.592-3.253 3.434 -1.185 0.819-2.439 1.233-3.728 1.233h-12.685v-31.63h12.685c1.285 0 2.54 0.415 3.728 1.234 1.222 0.845 2.316 2 3.253 3.432 0.946 1.451 1.713 3.15 2.277 5.052 0.565 1.905 0.852 3.957 0.852 6.098C458.969 316.831 458.682 318.868 458.117 320.802z"/>
    <path d="M505.553 268.561c0.988 0 1.579-0.556 1.579-1.487 0-0.989-0.591-1.579-1.579-1.579h-23.93c-0.989 0-1.58 0.59-1.58 1.579v64.976c0 0.932 0.591 1.488 1.58 1.488h23.93c0.988 0 1.579-0.557 1.579-1.488 0-0.988-0.591-1.579-1.579-1.579h-22.441V305.1h16.918c0.99 0 1.581-0.591 1.581-1.58 0-0.932-0.591-1.488-1.581-1.488h-16.918v-33.47H505.553z"/>
    <path d="M551.363 330.471h-23.086v-63.489c0-0.931-0.591-1.487-1.58-1.487s-1.58 0.556-1.58 1.487v65.068c0 0.932 0.591 1.488 1.58 1.488h24.666c0.989 0 1.58-0.557 1.58-1.488C552.943 331.062 552.353 330.471 551.363 330.471z"/>
    <path d="M588.642 268.114c-1.276-1.083-2.745-1.923-4.367-2.496 -1.619-0.571-3.308-0.861-5.021-0.861 -1.719 0-3.399 0.323-4.997 0.961 -1.582 0.635-3.028 1.502-4.318 2.598 -3.05 2.86-4.597 6.87-4.597 11.918v39.299c0 0.885 0.096 1.95 0.283 3.169 0.189 1.231 0.556 2.556 1.089 3.937 0.544 1.412 1.374 2.713 2.461 3.862 2.431 2.625 5.822 3.956 10.079 3.956 4.315 0 7.768-1.33 10.261-3.952 1.086-1.148 1.914-2.415 2.46-3.766 0.531-1.315 0.929-2.57 1.179-3.729 0.257-1.191 0.382-2.179 0.382-3.019v-39.758C593.535 275.057 591.892 270.981 588.642 268.114zM590.376 318.613c0 1.367-0.09 2.556-0.268 3.533 -0.177 0.974-0.478 2.042-0.894 3.174 -0.403 1.091-1.045 2.109-1.906 3.027 -1.902 2.02-4.612 3.043-8.055 3.043 -3.319 0-5.936-0.992-7.777-2.949 -0.861-0.918-1.501-1.979-1.901-3.155 -0.418-1.221-0.721-2.367-0.898-3.409 -0.177-1.029-0.236-2.305-0.176-3.816v-37.826c0-2.128 0.312-4.009 0.928-5.593 0.612-1.575 1.422-2.872 2.404-3.854 0.979-0.98 2.135-1.726 3.434-2.217 1.313-0.496 2.655-0.747 3.987-0.747 1.283 0 2.618 0.223 3.967 0.663 1.329 0.434 2.546 1.138 3.617 2.093 1.067 0.953 1.947 2.232 2.617 3.802 0.671 1.581 1.012 3.55 1.012 5.851L590.376 318.613z"/>
    <path d="M641.132 265.495c-0.988 0-1.579 0.556-1.579 1.487v57.543l-25.144-58.136c-0.021-0.047-0.048-0.092-0.08-0.132 -0.026-0.063-0.067-0.122-0.117-0.173 -0.026-0.053-0.061-0.101-0.103-0.144l-0.091-0.093c-0.034-0.034-0.08-0.063-0.134-0.088 -0.07-0.06-0.154-0.107-0.243-0.137 -0.117-0.08-0.26-0.128-0.396-0.128h-0.552c-0.15 0-0.285 0.045-0.394 0.123 -0.11 0.034-0.206 0.096-0.28 0.177 -0.034 0.028-0.065 0.06-0.095 0.094 -0.032 0.027-0.063 0.059-0.091 0.093 -0.073 0.06-0.134 0.138-0.179 0.224l-0.005 0.005c-0.062 0.062-0.109 0.199-0.138 0.332 -0.079 0.119-0.123 0.311-0.123 0.439v65.068c0 0.932 0.591 1.488 1.58 1.488s1.58-0.557 1.58-1.488v-57.543l25.112 58.067c0.022 0.1 0.066 0.189 0.127 0.265 0.027 0.06 0.064 0.114 0.111 0.161l0.189 0.189c0.048 0.048 0.104 0.085 0.164 0.113 0.042 0.031 0.089 0.058 0.138 0.08 0.176 0.125 0.36 0.155 0.557 0.155h0.552c0.131 0 0.258-0.046 0.358-0.129 0.086-0.036 0.163-0.098 0.226-0.174 0.033-0.027 0.064-0.059 0.092-0.093 0.071-0.058 0.131-0.134 0.176-0.219 0.01-0.014 0.02-0.028 0.029-0.043 0.145-0.103 0.239-0.271 0.239-0.463v-0.059c0.058-0.089 0.092-0.195 0.092-0.31v-65.068C642.712 266.05 642.121 265.495 641.132 265.495z"/>
    <path d="M688.237 301.387H677.1c-0.989 0-1.58 0.591-1.58 1.58s0.591 1.58 1.58 1.58h8.637v14.066c0 1.371-0.09 2.561-0.267 3.533 -0.178 0.978-0.492 2.041-0.936 3.161 -0.433 1.095-1.091 2.117-1.955 3.04 -1.902 2.02-4.613 3.043-8.056 3.043 -3.316 0-5.932-1.021-7.778-3.042 -0.866-0.923-1.522-1.975-1.953-3.125 -0.444-1.184-0.744-2.305-0.89-3.331 -0.149-1.034-0.224-2.323-0.224-3.924v-37.918c0-2.127 0.311-3.993 0.925-5.543 0.612-1.543 1.438-2.841 2.451-3.857 1.006-1.006 2.174-1.751 3.471-2.214 1.313-0.467 2.659-0.703 3.998-0.703 1.28 0 2.581 0.222 3.865 0.66 1.269 0.433 2.423 1.134 3.431 2.084 1.01 0.954 1.846 2.234 2.486 3.806 0.645 1.579 0.971 3.55 0.971 5.859 0 0.931 0.591 1.487 1.58 1.487 0.931 0 1.487-0.556 1.487-1.487 0-2.819-0.418-5.246-1.241-7.214 -0.827-1.969-1.926-3.599-3.267-4.843 -1.337-1.244-2.846-2.152-4.486-2.7 -1.618-0.538-3.242-0.811-4.826-0.811 -1.717 0-3.412 0.323-5.039 0.959 -1.625 0.638-3.061 1.509-4.275 2.599 -3.051 2.859-4.599 6.869-4.599 11.918v37.826c0 0.182-0.016 0.696-0.045 1.544 -0.032 0.897 0.063 1.976 0.285 3.204 0.222 1.233 0.603 2.554 1.133 3.924 0.543 1.408 1.369 2.735 2.46 3.953 2.431 2.625 5.822 3.956 10.08 3.956 4.379 0 7.833-1.363 10.26-4.044 1.087-1.151 1.914-2.401 2.458-3.715 0.532-1.285 0.93-2.525 1.181-3.688 0.258-1.194 0.383-2.196 0.383-3.063v-17.994C688.805 301.641 688.551 301.387 688.237 301.387z"/>
    <path d="M708.223 265.495c-0.988 0-1.579 0.556-1.579 1.487v65.068c0 0.932 0.591 1.488 1.579 1.488 0.989 0 1.58-0.557 1.58-1.488v-65.068C709.803 266.05 709.212 265.495 708.223 265.495z"/>
    <path d="M757.419 265.495c-0.989 0-1.58 0.556-1.58 1.487v57.543l-25.142-58.136c-0.021-0.048-0.049-0.093-0.082-0.134 -0.026-0.062-0.066-0.12-0.116-0.171 -0.026-0.054-0.062-0.103-0.105-0.146l-0.092-0.092c-0.033-0.033-0.079-0.062-0.131-0.086 -0.07-0.059-0.154-0.106-0.242-0.136 -0.117-0.081-0.26-0.128-0.396-0.128h-0.553c-0.15 0-0.285 0.045-0.394 0.123 -0.108 0.034-0.203 0.094-0.276 0.174 -0.036 0.028-0.068 0.062-0.098 0.097 -0.033 0.027-0.063 0.058-0.091 0.091 -0.074 0.061-0.137 0.14-0.182 0.229l-0.006 0.006c-0.061 0.061-0.106 0.197-0.134 0.329 -0.079 0.119-0.123 0.31-0.123 0.438v65.068c0 0.932 0.591 1.488 1.579 1.488 0.989 0 1.58-0.557 1.58-1.488v-57.543l25.112 58.067c0.022 0.1 0.066 0.189 0.127 0.265 0.027 0.06 0.064 0.114 0.111 0.161l0.192 0.191c0.048 0.047 0.103 0.084 0.161 0.11 0.043 0.031 0.089 0.059 0.137 0.08 0.175 0.126 0.36 0.156 0.558 0.156h0.553c0.132 0 0.259-0.047 0.359-0.129 0.085-0.036 0.16-0.098 0.223-0.172 0.034-0.027 0.065-0.06 0.094-0.095 0.071-0.058 0.131-0.134 0.176-0.219 0.011-0.015 0.021-0.029 0.03-0.045 0.144-0.103 0.237-0.271 0.237-0.461v-0.059c0.058-0.089 0.092-0.195 0.092-0.31v-65.068C758.998 266.05 758.407 265.495 757.419 265.495z"/>
    <path d="M804.356 301.387H793.22c-0.989 0-1.58 0.591-1.58 1.58s0.591 1.58 1.58 1.58h8.636v14.066c0 1.37-0.089 2.559-0.266 3.533 -0.179 0.979-0.493 2.043-0.937 3.162 -0.431 1.092-1.09 2.115-1.955 3.039 -1.903 2.02-4.614 3.043-8.056 3.043 -3.316 0-5.932-1.021-7.778-3.042 -0.865-0.923-1.522-1.975-1.953-3.125 -0.443-1.181-0.743-2.301-0.889-3.332 -0.149-1.03-0.225-2.319-0.225-3.923v-37.918c0-2.126 0.312-3.991 0.927-5.543 0.611-1.544 1.437-2.842 2.451-3.857 1.004-1.006 2.172-1.751 3.469-2.214 1.313-0.467 2.659-0.703 3.998-0.703 1.28 0 2.581 0.222 3.865 0.66 1.267 0.432 2.421 1.133 3.432 2.084 1.009 0.953 1.846 2.233 2.486 3.806 0.644 1.58 0.97 3.551 0.97 5.86 0 0.931 0.591 1.487 1.58 1.487 0.931 0 1.487-0.556 1.487-1.487 0-2.821-0.418-5.248-1.241-7.214 -0.827-1.97-1.926-3.6-3.266-4.843 -1.339-1.245-2.849-2.153-4.487-2.7 -1.617-0.538-3.241-0.811-4.826-0.811 -1.716 0-3.411 0.323-5.039 0.959 -1.623 0.637-3.058 1.509-4.275 2.599 -3.051 2.86-4.599 6.87-4.599 11.918v37.826c0 0.182-0.016 0.696-0.045 1.544 -0.032 0.899 0.063 1.978 0.286 3.203 0.219 1.227 0.6 2.547 1.132 3.925 0.543 1.408 1.369 2.735 2.46 3.953 2.431 2.625 5.822 3.956 10.08 3.956 4.379 0 7.834-1.363 10.26-4.044 1.085-1.149 1.913-2.398 2.459-3.715 0.532-1.287 0.929-2.527 1.18-3.687 0.254-1.173 0.383-2.204 0.383-3.064v-17.994C804.924 301.641 804.67 301.387 804.356 301.387z"/>
  </g>
</svg>